<?xml version="1.0" encoding="utf-8" standalone="no"?>
<!DOCTYPE svg PUBLIC "-//W3C//DTD SVG 1.1//EN"
  "http://www.w3.org/Graphics/SVG/1.1/DTD/svg11.dtd">
<svg xmlns:xlink="http://www.w3.org/1999/xlink" width="720pt" height="720pt" viewBox="0 0 720 720" xmlns="http://www.w3.org/2000/svg" version="1.1">
 <metadata>
  <rdf:RDF xmlns:dc="http://purl.org/dc/elements/1.1/" xmlns:cc="http://creativecommons.org/ns#" xmlns:rdf="http://www.w3.org/1999/02/22-rdf-syntax-ns#">
   <cc:Work>
    <dc:type rdf:resource="http://purl.org/dc/dcmitype/StillImage"/>
    <dc:date>2025-11-19T23:27:41.385840</dc:date>
    <dc:format>image/svg+xml</dc:format>
    <dc:creator>
     <cc:Agent>
      <dc:title>Matplotlib v3.10.0, https://matplotlib.org/</dc:title>
     </cc:Agent>
    </dc:creator>
   </cc:Work>
  </rdf:RDF>
 </metadata>
 <defs>
  <style type="text/css">*{stroke-linejoin: round; stroke-linecap: butt}</style>
 </defs>
 <g id="figure_1">
  <g id="patch_1">
   <path d="M 0 720 
L 720 720 
L 720 0 
L 0 0 
z
" style="fill: #ffffff"/>
  </g>
  <g id="axes_1">
   <g id="patch_2">
    <path d="M 90 640.8 
L 648 640.8 
L 648 86.4 
L 90 86.4 
z
" style="fill: #ffffff"/>
   </g>
   <g id="PathCollection_1">
    <defs>
     <path id="m850ea7fc16" d="M 0 3 
C 0.795609 3 1.55874 2.683901 2.12132 2.12132 
C 2.683901 1.55874 3 0.795609 3 0 
C 3 -0.795609 2.683901 -1.55874 2.12132 -2.12132 
C 1.55874 -2.683901 0.795609 -3 0 -3 
C -0.795609 -3 -1.55874 -2.683901 -2.12132 -2.12132 
C -2.683901 -1.55874 -3 -0.795609 -3 0 
C -3 0.795609 -2.683901 1.55874 -2.12132 2.12132 
C -1.55874 2.683901 -0.795609 3 0 3 
z
" style="stroke: #1f77b4"/>
    </defs>
    <g clip-path="url(#pe81eb02790)">
     <use xlink:href="#m850ea7fc16" x="122.030091" y="370.399491" style="fill: #1f77b4; stroke: #1f77b4"/>
     <use xlink:href="#m850ea7fc16" x="135.397504" y="368.809096" style="fill: #1f77b4; stroke: #1f77b4"/>
     <use xlink:href="#m850ea7fc16" x="138.071301" y="370.545967" style="fill: #1f77b4; stroke: #1f77b4"/>
     <use xlink:href="#m850ea7fc16" x="325.190274" y="387.558461" style="fill: #1f77b4; stroke: #1f77b4"/>
     <use xlink:href="#m850ea7fc16" x="324.012899" y="399.96538" style="fill: #1f77b4; stroke: #1f77b4"/>
     <use xlink:href="#m850ea7fc16" x="178.194519" y="217.385403" style="fill: #1f77b4; stroke: #1f77b4"/>
     <use xlink:href="#m850ea7fc16" x="263.018179" y="410.239665" style="fill: #1f77b4; stroke: #1f77b4"/>
     <use xlink:href="#m850ea7fc16" x="367.205817" y="324.936157" style="fill: #1f77b4; stroke: #1f77b4"/>
     <use xlink:href="#m850ea7fc16" x="390.238978" y="409.998931" style="fill: #1f77b4; stroke: #1f77b4"/>
     <use xlink:href="#m850ea7fc16" x="358.854037" y="371.112955" style="fill: #1f77b4; stroke: #1f77b4"/>
     <use xlink:href="#m850ea7fc16" x="506.586155" y="180.341059" style="fill: #1f77b4; stroke: #1f77b4"/>
     <use xlink:href="#m850ea7fc16" x="323.652837" y="172.774014" style="fill: #1f77b4; stroke: #1f77b4"/>
     <use xlink:href="#m850ea7fc16" x="413.31498" y="468.254691" style="fill: #1f77b4; stroke: #1f77b4"/>
     <use xlink:href="#m850ea7fc16" x="591.162682" y="207.128485" style="fill: #1f77b4; stroke: #1f77b4"/>
     <use xlink:href="#m850ea7fc16" x="622.636364" y="259.767069" style="fill: #1f77b4; stroke: #1f77b4"/>
     <use xlink:href="#m850ea7fc16" x="177.392029" y="615.6" style="fill: #1f77b4; stroke: #1f77b4"/>
     <use xlink:href="#m850ea7fc16" x="414.368529" y="518.875354" style="fill: #1f77b4; stroke: #1f77b4"/>
     <use xlink:href="#m850ea7fc16" x="492.164376" y="250.229359" style="fill: #1f77b4; stroke: #1f77b4"/>
     <use xlink:href="#m850ea7fc16" x="115.363636" y="343.318489" style="fill: #1f77b4; stroke: #1f77b4"/>
     <use xlink:href="#m850ea7fc16" x="213.161958" y="111.6" style="fill: #1f77b4; stroke: #1f77b4"/>
    </g>
   </g>
   <g id="matplotlib.axis_1">
    <g id="xtick_1">
     <g id="line2d_1">
      <path d="M 137.096492 640.8 
L 137.096492 86.4 
" clip-path="url(#pe81eb02790)" style="fill: none; stroke-dasharray: 0.8,1.32; stroke-dashoffset: 0; stroke: #b0b0b0; stroke-width: 0.8"/>
     </g>
     <g id="line2d_2">
      <defs>
       <path id="m00fc0299c5" d="M 0 0 
L 0 3.5 
" style="stroke: #000000; stroke-width: 0.8"/>
      </defs>
      <g>
       <use xlink:href="#m00fc0299c5" x="137.096492" y="640.8" style="stroke: #000000; stroke-width: 0.8"/>
      </g>
     </g>
     <g id="text_1">
      <!-- 0 -->
      <g transform="translate(133.915242 655.398438) scale(0.1 -0.1)">
       <defs>
        <path id="DejaVuSans-30" d="M 2034 4250 
Q 1547 4250 1301 3770 
Q 1056 3291 1056 2328 
Q 1056 1369 1301 889 
Q 1547 409 2034 409 
Q 2525 409 2770 889 
Q 3016 1369 3016 2328 
Q 3016 3291 2770 3770 
Q 2525 4250 2034 4250 
z
M 2034 4750 
Q 2819 4750 3233 4129 
Q 3647 3509 3647 2328 
Q 3647 1150 3233 529 
Q 2819 -91 2034 -91 
Q 1250 -91 836 529 
Q 422 1150 422 2328 
Q 422 3509 836 4129 
Q 1250 4750 2034 4750 
z
" transform="scale(0.015625)"/>
       </defs>
       <use xlink:href="#DejaVuSans-30"/>
      </g>
     </g>
    </g>
    <g id="xtick_2">
     <g id="line2d_3">
      <path d="M 245.427829 640.8 
L 245.427829 86.4 
" clip-path="url(#pe81eb02790)" style="fill: none; stroke-dasharray: 0.8,1.32; stroke-dashoffset: 0; stroke: #b0b0b0; stroke-width: 0.8"/>
     </g>
     <g id="line2d_4">
      <g>
       <use xlink:href="#m00fc0299c5" x="245.427829" y="640.8" style="stroke: #000000; stroke-width: 0.8"/>
      </g>
     </g>
     <g id="text_2">
      <!-- 1 -->
      <g transform="translate(242.246579 655.398438) scale(0.1 -0.1)">
       <defs>
        <path id="DejaVuSans-31" d="M 794 531 
L 1825 531 
L 1825 4091 
L 703 3866 
L 703 4441 
L 1819 4666 
L 2450 4666 
L 2450 531 
L 3481 531 
L 3481 0 
L 794 0 
L 794 531 
z
" transform="scale(0.015625)"/>
       </defs>
       <use xlink:href="#DejaVuSans-31"/>
      </g>
     </g>
    </g>
    <g id="xtick_3">
     <g id="line2d_5">
      <path d="M 353.759167 640.8 
L 353.759167 86.4 
" clip-path="url(#pe81eb02790)" style="fill: none; stroke-dasharray: 0.8,1.32; stroke-dashoffset: 0; stroke: #b0b0b0; stroke-width: 0.8"/>
     </g>
     <g id="line2d_6">
      <g>
       <use xlink:href="#m00fc0299c5" x="353.759167" y="640.8" style="stroke: #000000; stroke-width: 0.8"/>
      </g>
     </g>
     <g id="text_3">
      <!-- 2 -->
      <g transform="translate(350.577917 655.398438) scale(0.1 -0.1)">
       <defs>
        <path id="DejaVuSans-32" d="M 1228 531 
L 3431 531 
L 3431 0 
L 469 0 
L 469 531 
Q 828 903 1448 1529 
Q 2069 2156 2228 2338 
Q 2531 2678 2651 2914 
Q 2772 3150 2772 3378 
Q 2772 3750 2511 3984 
Q 2250 4219 1831 4219 
Q 1534 4219 1204 4116 
Q 875 4013 500 3803 
L 500 4441 
Q 881 4594 1212 4672 
Q 1544 4750 1819 4750 
Q 2544 4750 2975 4387 
Q 3406 4025 3406 3419 
Q 3406 3131 3298 2873 
Q 3191 2616 2906 2266 
Q 2828 2175 2409 1742 
Q 1991 1309 1228 531 
z
" transform="scale(0.015625)"/>
       </defs>
       <use xlink:href="#DejaVuSans-32"/>
      </g>
     </g>
    </g>
    <g id="xtick_4">
     <g id="line2d_7">
      <path d="M 462.090505 640.8 
L 462.090505 86.4 
" clip-path="url(#pe81eb02790)" style="fill: none; stroke-dasharray: 0.8,1.32; stroke-dashoffset: 0; stroke: #b0b0b0; stroke-width: 0.8"/>
     </g>
     <g id="line2d_8">
      <g>
       <use xlink:href="#m00fc0299c5" x="462.090505" y="640.8" style="stroke: #000000; stroke-width: 0.8"/>
      </g>
     </g>
     <g id="text_4">
      <!-- 3 -->
      <g transform="translate(458.909255 655.398438) scale(0.1 -0.1)">
       <defs>
        <path id="DejaVuSans-33" d="M 2597 2516 
Q 3050 2419 3304 2112 
Q 3559 1806 3559 1356 
Q 3559 666 3084 287 
Q 2609 -91 1734 -91 
Q 1441 -91 1130 -33 
Q 819 25 488 141 
L 488 750 
Q 750 597 1062 519 
Q 1375 441 1716 441 
Q 2309 441 2620 675 
Q 2931 909 2931 1356 
Q 2931 1769 2642 2001 
Q 2353 2234 1838 2234 
L 1294 2234 
L 1294 2753 
L 1863 2753 
Q 2328 2753 2575 2939 
Q 2822 3125 2822 3475 
Q 2822 3834 2567 4026 
Q 2313 4219 1838 4219 
Q 1578 4219 1281 4162 
Q 984 4106 628 3988 
L 628 4550 
Q 988 4650 1302 4700 
Q 1616 4750 1894 4750 
Q 2613 4750 3031 4423 
Q 3450 4097 3450 3541 
Q 3450 3153 3228 2886 
Q 3006 2619 2597 2516 
z
" transform="scale(0.015625)"/>
       </defs>
       <use xlink:href="#DejaVuSans-33"/>
      </g>
     </g>
    </g>
    <g id="xtick_5">
     <g id="line2d_9">
      <path d="M 570.421842 640.8 
L 570.421842 86.4 
" clip-path="url(#pe81eb02790)" style="fill: none; stroke-dasharray: 0.8,1.32; stroke-dashoffset: 0; stroke: #b0b0b0; stroke-width: 0.8"/>
     </g>
     <g id="line2d_10">
      <g>
       <use xlink:href="#m00fc0299c5" x="570.421842" y="640.8" style="stroke: #000000; stroke-width: 0.8"/>
      </g>
     </g>
     <g id="text_5">
      <!-- 4 -->
      <g transform="translate(567.240592 655.398438) scale(0.1 -0.1)">
       <defs>
        <path id="DejaVuSans-34" d="M 2419 4116 
L 825 1625 
L 2419 1625 
L 2419 4116 
z
M 2253 4666 
L 3047 4666 
L 3047 1625 
L 3713 1625 
L 3713 1100 
L 3047 1100 
L 3047 0 
L 2419 0 
L 2419 1100 
L 313 1100 
L 313 1709 
L 2253 4666 
z
" transform="scale(0.015625)"/>
       </defs>
       <use xlink:href="#DejaVuSans-34"/>
      </g>
     </g>
    </g>
    <g id="text_6">
     <!-- $x$ -->
     <g transform="translate(366 669.076563) scale(0.1 -0.1)">
      <defs>
       <path id="DejaVuSans-Oblique-78" d="M 3841 3500 
L 2234 1784 
L 3219 0 
L 2559 0 
L 1819 1388 
L 531 0 
L -166 0 
L 1556 1844 
L 641 3500 
L 1300 3500 
L 1972 2234 
L 3144 3500 
L 3841 3500 
z
" transform="scale(0.015625)"/>
      </defs>
      <use xlink:href="#DejaVuSans-Oblique-78" transform="translate(0 0.3125)"/>
     </g>
    </g>
   </g>
   <g id="matplotlib.axis_2">
    <g id="ytick_1">
     <g id="line2d_11">
      <path d="M 90 604.988302 
L 648 604.988302 
" clip-path="url(#pe81eb02790)" style="fill: none; stroke-dasharray: 0.8,1.32; stroke-dashoffset: 0; stroke: #b0b0b0; stroke-width: 0.8"/>
     </g>
     <g id="line2d_12">
      <defs>
       <path id="m36815a24ed" d="M 0 0 
L -3.5 0 
" style="stroke: #000000; stroke-width: 0.8"/>
      </defs>
      <g>
       <use xlink:href="#m36815a24ed" x="90" y="604.988302" style="stroke: #000000; stroke-width: 0.8"/>
      </g>
     </g>
     <g id="text_7">
      <!-- −3 -->
      <g transform="translate(68.257812 608.787521) scale(0.1 -0.1)">
       <defs>
        <path id="DejaVuSans-2212" d="M 678 2272 
L 4684 2272 
L 4684 1741 
L 678 1741 
L 678 2272 
z
" transform="scale(0.015625)"/>
       </defs>
       <use xlink:href="#DejaVuSans-2212"/>
       <use xlink:href="#DejaVuSans-33" transform="translate(83.789062 0)"/>
      </g>
     </g>
    </g>
    <g id="ytick_2">
     <g id="line2d_13">
      <path d="M 90 495.70287 
L 648 495.70287 
" clip-path="url(#pe81eb02790)" style="fill: none; stroke-dasharray: 0.8,1.32; stroke-dashoffset: 0; stroke: #b0b0b0; stroke-width: 0.8"/>
     </g>
     <g id="line2d_14">
      <g>
       <use xlink:href="#m36815a24ed" x="90" y="495.70287" style="stroke: #000000; stroke-width: 0.8"/>
      </g>
     </g>
     <g id="text_8">
      <!-- −2 -->
      <g transform="translate(68.257812 499.502089) scale(0.1 -0.1)">
       <use xlink:href="#DejaVuSans-2212"/>
       <use xlink:href="#DejaVuSans-32" transform="translate(83.789062 0)"/>
      </g>
     </g>
    </g>
    <g id="ytick_3">
     <g id="line2d_15">
      <path d="M 90 386.417438 
L 648 386.417438 
" clip-path="url(#pe81eb02790)" style="fill: none; stroke-dasharray: 0.8,1.32; stroke-dashoffset: 0; stroke: #b0b0b0; stroke-width: 0.8"/>
     </g>
     <g id="line2d_16">
      <g>
       <use xlink:href="#m36815a24ed" x="90" y="386.417438" style="stroke: #000000; stroke-width: 0.8"/>
      </g>
     </g>
     <g id="text_9">
      <!-- −1 -->
      <g transform="translate(68.257812 390.216657) scale(0.1 -0.1)">
       <use xlink:href="#DejaVuSans-2212"/>
       <use xlink:href="#DejaVuSans-31" transform="translate(83.789062 0)"/>
      </g>
     </g>
    </g>
    <g id="ytick_4">
     <g id="line2d_17">
      <path d="M 90 277.132006 
L 648 277.132006 
" clip-path="url(#pe81eb02790)" style="fill: none; stroke-dasharray: 0.8,1.32; stroke-dashoffset: 0; stroke: #b0b0b0; stroke-width: 0.8"/>
     </g>
     <g id="line2d_18">
      <g>
       <use xlink:href="#m36815a24ed" x="90" y="277.132006" style="stroke: #000000; stroke-width: 0.8"/>
      </g>
     </g>
     <g id="text_10">
      <!-- 0 -->
      <g transform="translate(76.6375 280.931225) scale(0.1 -0.1)">
       <use xlink:href="#DejaVuSans-30"/>
      </g>
     </g>
    </g>
    <g id="ytick_5">
     <g id="line2d_19">
      <path d="M 90 167.846574 
L 648 167.846574 
" clip-path="url(#pe81eb02790)" style="fill: none; stroke-dasharray: 0.8,1.32; stroke-dashoffset: 0; stroke: #b0b0b0; stroke-width: 0.8"/>
     </g>
     <g id="line2d_20">
      <g>
       <use xlink:href="#m36815a24ed" x="90" y="167.846574" style="stroke: #000000; stroke-width: 0.8"/>
      </g>
     </g>
     <g id="text_11">
      <!-- 1 -->
      <g transform="translate(76.6375 171.645793) scale(0.1 -0.1)">
       <use xlink:href="#DejaVuSans-31"/>
      </g>
     </g>
    </g>
    <g id="text_12">
     <!-- $y$ -->
     <g transform="translate(62.157812 366.6) rotate(-90) scale(0.1 -0.1)">
      <defs>
       <path id="DejaVuSans-Oblique-79" d="M 1588 -325 
Q 1188 -997 936 -1164 
Q 684 -1331 294 -1331 
L -159 -1331 
L -63 -850 
L 269 -850 
Q 509 -850 678 -719 
Q 847 -588 1056 -206 
L 1234 128 
L 459 3500 
L 1069 3500 
L 1650 819 
L 3256 3500 
L 3859 3500 
L 1588 -325 
z
" transform="scale(0.015625)"/>
      </defs>
      <use xlink:href="#DejaVuSans-Oblique-79" transform="translate(0 0.3125)"/>
     </g>
    </g>
   </g>
   <g id="patch_3">
    <path d="M 90 640.8 
L 90 86.4 
" style="fill: none; stroke: #000000; stroke-width: 0.8; stroke-linejoin: miter; stroke-linecap: square"/>
   </g>
   <g id="patch_4">
    <path d="M 648 640.8 
L 648 86.4 
" style="fill: none; stroke: #000000; stroke-width: 0.8; stroke-linejoin: miter; stroke-linecap: square"/>
   </g>
   <g id="patch_5">
    <path d="M 90 640.8 
L 648 640.8 
" style="fill: none; stroke: #000000; stroke-width: 0.8; stroke-linejoin: miter; stroke-linecap: square"/>
   </g>
   <g id="patch_6">
    <path d="M 90 86.4 
L 648 86.4 
" style="fill: none; stroke: #000000; stroke-width: 0.8; stroke-linejoin: miter; stroke-linecap: square"/>
   </g>
   <g id="text_13">
    <!-- Lord of the Rings: The -->
    <g transform="translate(131.854219 340.217053) scale(0.1 -0.1)">
     <defs>
      <path id="DejaVuSans-4c" d="M 628 4666 
L 1259 4666 
L 1259 531 
L 3531 531 
L 3531 0 
L 628 0 
L 628 4666 
z
" transform="scale(0.015625)"/>
      <path id="DejaVuSans-6f" d="M 1959 3097 
Q 1497 3097 1228 2736 
Q 959 2375 959 1747 
Q 959 1119 1226 758 
Q 1494 397 1959 397 
Q 2419 397 2687 759 
Q 2956 1122 2956 1747 
Q 2956 2369 2687 2733 
Q 2419 3097 1959 3097 
z
M 1959 3584 
Q 2709 3584 3137 3096 
Q 3566 2609 3566 1747 
Q 3566 888 3137 398 
Q 2709 -91 1959 -91 
Q 1206 -91 779 398 
Q 353 888 353 1747 
Q 353 2609 779 3096 
Q 1206 3584 1959 3584 
z
" transform="scale(0.015625)"/>
      <path id="DejaVuSans-72" d="M 2631 2963 
Q 2534 3019 2420 3045 
Q 2306 3072 2169 3072 
Q 1681 3072 1420 2755 
Q 1159 2438 1159 1844 
L 1159 0 
L 581 0 
L 581 3500 
L 1159 3500 
L 1159 2956 
Q 1341 3275 1631 3429 
Q 1922 3584 2338 3584 
Q 2397 3584 2469 3576 
Q 2541 3569 2628 3553 
L 2631 2963 
z
" transform="scale(0.015625)"/>
      <path id="DejaVuSans-64" d="M 2906 2969 
L 2906 4863 
L 3481 4863 
L 3481 0 
L 2906 0 
L 2906 525 
Q 2725 213 2448 61 
Q 2172 -91 1784 -91 
Q 1150 -91 751 415 
Q 353 922 353 1747 
Q 353 2572 751 3078 
Q 1150 3584 1784 3584 
Q 2172 3584 2448 3432 
Q 2725 3281 2906 2969 
z
M 947 1747 
Q 947 1113 1208 752 
Q 1469 391 1925 391 
Q 2381 391 2643 752 
Q 2906 1113 2906 1747 
Q 2906 2381 2643 2742 
Q 2381 3103 1925 3103 
Q 1469 3103 1208 2742 
Q 947 2381 947 1747 
z
" transform="scale(0.015625)"/>
      <path id="DejaVuSans-20" transform="scale(0.015625)"/>
      <path id="DejaVuSans-66" d="M 2375 4863 
L 2375 4384 
L 1825 4384 
Q 1516 4384 1395 4259 
Q 1275 4134 1275 3809 
L 1275 3500 
L 2222 3500 
L 2222 3053 
L 1275 3053 
L 1275 0 
L 697 0 
L 697 3053 
L 147 3053 
L 147 3500 
L 697 3500 
L 697 3744 
Q 697 4328 969 4595 
Q 1241 4863 1831 4863 
L 2375 4863 
z
" transform="scale(0.015625)"/>
      <path id="DejaVuSans-74" d="M 1172 4494 
L 1172 3500 
L 2356 3500 
L 2356 3053 
L 1172 3053 
L 1172 1153 
Q 1172 725 1289 603 
Q 1406 481 1766 481 
L 2356 481 
L 2356 0 
L 1766 0 
Q 1100 0 847 248 
Q 594 497 594 1153 
L 594 3053 
L 172 3053 
L 172 3500 
L 594 3500 
L 594 4494 
L 1172 4494 
z
" transform="scale(0.015625)"/>
      <path id="DejaVuSans-68" d="M 3513 2113 
L 3513 0 
L 2938 0 
L 2938 2094 
Q 2938 2591 2744 2837 
Q 2550 3084 2163 3084 
Q 1697 3084 1428 2787 
Q 1159 2491 1159 1978 
L 1159 0 
L 581 0 
L 581 4863 
L 1159 4863 
L 1159 2956 
Q 1366 3272 1645 3428 
Q 1925 3584 2291 3584 
Q 2894 3584 3203 3211 
Q 3513 2838 3513 2113 
z
" transform="scale(0.015625)"/>
      <path id="DejaVuSans-65" d="M 3597 1894 
L 3597 1613 
L 953 1613 
Q 991 1019 1311 708 
Q 1631 397 2203 397 
Q 2534 397 2845 478 
Q 3156 559 3463 722 
L 3463 178 
Q 3153 47 2828 -22 
Q 2503 -91 2169 -91 
Q 1331 -91 842 396 
Q 353 884 353 1716 
Q 353 2575 817 3079 
Q 1281 3584 2069 3584 
Q 2775 3584 3186 3129 
Q 3597 2675 3597 1894 
z
M 3022 2063 
Q 3016 2534 2758 2815 
Q 2500 3097 2075 3097 
Q 1594 3097 1305 2825 
Q 1016 2553 972 2059 
L 3022 2063 
z
" transform="scale(0.015625)"/>
      <path id="DejaVuSans-52" d="M 2841 2188 
Q 3044 2119 3236 1894 
Q 3428 1669 3622 1275 
L 4263 0 
L 3584 0 
L 2988 1197 
Q 2756 1666 2539 1819 
Q 2322 1972 1947 1972 
L 1259 1972 
L 1259 0 
L 628 0 
L 628 4666 
L 2053 4666 
Q 2853 4666 3247 4331 
Q 3641 3997 3641 3322 
Q 3641 2881 3436 2590 
Q 3231 2300 2841 2188 
z
M 1259 4147 
L 1259 2491 
L 2053 2491 
Q 2509 2491 2742 2702 
Q 2975 2913 2975 3322 
Q 2975 3731 2742 3939 
Q 2509 4147 2053 4147 
L 1259 4147 
z
" transform="scale(0.015625)"/>
      <path id="DejaVuSans-69" d="M 603 3500 
L 1178 3500 
L 1178 0 
L 603 0 
L 603 3500 
z
M 603 4863 
L 1178 4863 
L 1178 4134 
L 603 4134 
L 603 4863 
z
" transform="scale(0.015625)"/>
      <path id="DejaVuSans-6e" d="M 3513 2113 
L 3513 0 
L 2938 0 
L 2938 2094 
Q 2938 2591 2744 2837 
Q 2550 3084 2163 3084 
Q 1697 3084 1428 2787 
Q 1159 2491 1159 1978 
L 1159 0 
L 581 0 
L 581 3500 
L 1159 3500 
L 1159 2956 
Q 1366 3272 1645 3428 
Q 1925 3584 2291 3584 
Q 2894 3584 3203 3211 
Q 3513 2838 3513 2113 
z
" transform="scale(0.015625)"/>
      <path id="DejaVuSans-67" d="M 2906 1791 
Q 2906 2416 2648 2759 
Q 2391 3103 1925 3103 
Q 1463 3103 1205 2759 
Q 947 2416 947 1791 
Q 947 1169 1205 825 
Q 1463 481 1925 481 
Q 2391 481 2648 825 
Q 2906 1169 2906 1791 
z
M 3481 434 
Q 3481 -459 3084 -895 
Q 2688 -1331 1869 -1331 
Q 1566 -1331 1297 -1286 
Q 1028 -1241 775 -1147 
L 775 -588 
Q 1028 -725 1275 -790 
Q 1522 -856 1778 -856 
Q 2344 -856 2625 -561 
Q 2906 -266 2906 331 
L 2906 616 
Q 2728 306 2450 153 
Q 2172 0 1784 0 
Q 1141 0 747 490 
Q 353 981 353 1791 
Q 353 2603 747 3093 
Q 1141 3584 1784 3584 
Q 2172 3584 2450 3431 
Q 2728 3278 2906 2969 
L 2906 3500 
L 3481 3500 
L 3481 434 
z
" transform="scale(0.015625)"/>
      <path id="DejaVuSans-73" d="M 2834 3397 
L 2834 2853 
Q 2591 2978 2328 3040 
Q 2066 3103 1784 3103 
Q 1356 3103 1142 2972 
Q 928 2841 928 2578 
Q 928 2378 1081 2264 
Q 1234 2150 1697 2047 
L 1894 2003 
Q 2506 1872 2764 1633 
Q 3022 1394 3022 966 
Q 3022 478 2636 193 
Q 2250 -91 1575 -91 
Q 1294 -91 989 -36 
Q 684 19 347 128 
L 347 722 
Q 666 556 975 473 
Q 1284 391 1588 391 
Q 1994 391 2212 530 
Q 2431 669 2431 922 
Q 2431 1156 2273 1281 
Q 2116 1406 1581 1522 
L 1381 1569 
Q 847 1681 609 1914 
Q 372 2147 372 2553 
Q 372 3047 722 3315 
Q 1072 3584 1716 3584 
Q 2034 3584 2315 3537 
Q 2597 3491 2834 3397 
z
" transform="scale(0.015625)"/>
      <path id="DejaVuSans-3a" d="M 750 794 
L 1409 794 
L 1409 0 
L 750 0 
L 750 794 
z
M 750 3309 
L 1409 3309 
L 1409 2516 
L 750 2516 
L 750 3309 
z
" transform="scale(0.015625)"/>
      <path id="DejaVuSans-54" d="M -19 4666 
L 3928 4666 
L 3928 4134 
L 2272 4134 
L 2272 0 
L 1638 0 
L 1638 4134 
L -19 4134 
L -19 4666 
z
" transform="scale(0.015625)"/>
     </defs>
     <use xlink:href="#DejaVuSans-4c"/>
     <use xlink:href="#DejaVuSans-6f" transform="translate(53.962891 0)"/>
     <use xlink:href="#DejaVuSans-72" transform="translate(115.144531 0)"/>
     <use xlink:href="#DejaVuSans-64" transform="translate(154.507812 0)"/>
     <use xlink:href="#DejaVuSans-20" transform="translate(217.984375 0)"/>
     <use xlink:href="#DejaVuSans-6f" transform="translate(249.771484 0)"/>
     <use xlink:href="#DejaVuSans-66" transform="translate(310.953125 0)"/>
     <use xlink:href="#DejaVuSans-20" transform="translate(346.158203 0)"/>
     <use xlink:href="#DejaVuSans-74" transform="translate(377.945312 0)"/>
     <use xlink:href="#DejaVuSans-68" transform="translate(417.154297 0)"/>
     <use xlink:href="#DejaVuSans-65" transform="translate(480.533203 0)"/>
     <use xlink:href="#DejaVuSans-20" transform="translate(542.056641 0)"/>
     <use xlink:href="#DejaVuSans-52" transform="translate(573.84375 0)"/>
     <use xlink:href="#DejaVuSans-69" transform="translate(643.326172 0)"/>
     <use xlink:href="#DejaVuSans-6e" transform="translate(671.109375 0)"/>
     <use xlink:href="#DejaVuSans-67" transform="translate(734.488281 0)"/>
     <use xlink:href="#DejaVuSans-73" transform="translate(797.964844 0)"/>
     <use xlink:href="#DejaVuSans-3a" transform="translate(850.064453 0)"/>
     <use xlink:href="#DejaVuSans-20" transform="translate(883.755859 0)"/>
     <use xlink:href="#DejaVuSans-54" transform="translate(915.542969 0)"/>
     <use xlink:href="#DejaVuSans-68" transform="translate(976.626953 0)"/>
     <use xlink:href="#DejaVuSans-65" transform="translate(1040.005859 0)"/>
    </g>
    <!-- Fellowship of the Ring, The -->
    <g transform="translate(119.513594 351.414866) scale(0.1 -0.1)">
     <defs>
      <path id="DejaVuSans-46" d="M 628 4666 
L 3309 4666 
L 3309 4134 
L 1259 4134 
L 1259 2759 
L 3109 2759 
L 3109 2228 
L 1259 2228 
L 1259 0 
L 628 0 
L 628 4666 
z
" transform="scale(0.015625)"/>
      <path id="DejaVuSans-6c" d="M 603 4863 
L 1178 4863 
L 1178 0 
L 603 0 
L 603 4863 
z
" transform="scale(0.015625)"/>
      <path id="DejaVuSans-77" d="M 269 3500 
L 844 3500 
L 1563 769 
L 2278 3500 
L 2956 3500 
L 3675 769 
L 4391 3500 
L 4966 3500 
L 4050 0 
L 3372 0 
L 2619 2869 
L 1863 0 
L 1184 0 
L 269 3500 
z
" transform="scale(0.015625)"/>
      <path id="DejaVuSans-70" d="M 1159 525 
L 1159 -1331 
L 581 -1331 
L 581 3500 
L 1159 3500 
L 1159 2969 
Q 1341 3281 1617 3432 
Q 1894 3584 2278 3584 
Q 2916 3584 3314 3078 
Q 3713 2572 3713 1747 
Q 3713 922 3314 415 
Q 2916 -91 2278 -91 
Q 1894 -91 1617 61 
Q 1341 213 1159 525 
z
M 3116 1747 
Q 3116 2381 2855 2742 
Q 2594 3103 2138 3103 
Q 1681 3103 1420 2742 
Q 1159 2381 1159 1747 
Q 1159 1113 1420 752 
Q 1681 391 2138 391 
Q 2594 391 2855 752 
Q 3116 1113 3116 1747 
z
" transform="scale(0.015625)"/>
      <path id="DejaVuSans-2c" d="M 750 794 
L 1409 794 
L 1409 256 
L 897 -744 
L 494 -744 
L 750 256 
L 750 794 
z
" transform="scale(0.015625)"/>
     </defs>
     <use xlink:href="#DejaVuSans-46"/>
     <use xlink:href="#DejaVuSans-65" transform="translate(52.019531 0)"/>
     <use xlink:href="#DejaVuSans-6c" transform="translate(113.542969 0)"/>
     <use xlink:href="#DejaVuSans-6c" transform="translate(141.326172 0)"/>
     <use xlink:href="#DejaVuSans-6f" transform="translate(169.109375 0)"/>
     <use xlink:href="#DejaVuSans-77" transform="translate(230.291016 0)"/>
     <use xlink:href="#DejaVuSans-73" transform="translate(312.078125 0)"/>
     <use xlink:href="#DejaVuSans-68" transform="translate(364.177734 0)"/>
     <use xlink:href="#DejaVuSans-69" transform="translate(427.556641 0)"/>
     <use xlink:href="#DejaVuSans-70" transform="translate(455.339844 0)"/>
     <use xlink:href="#DejaVuSans-20" transform="translate(518.816406 0)"/>
     <use xlink:href="#DejaVuSans-6f" transform="translate(550.603516 0)"/>
     <use xlink:href="#DejaVuSans-66" transform="translate(611.785156 0)"/>
     <use xlink:href="#DejaVuSans-20" transform="translate(646.990234 0)"/>
     <use xlink:href="#DejaVuSans-74" transform="translate(678.777344 0)"/>
     <use xlink:href="#DejaVuSans-68" transform="translate(717.986328 0)"/>
     <use xlink:href="#DejaVuSans-65" transform="translate(781.365234 0)"/>
     <use xlink:href="#DejaVuSans-20" transform="translate(842.888672 0)"/>
     <use xlink:href="#DejaVuSans-52" transform="translate(874.675781 0)"/>
     <use xlink:href="#DejaVuSans-69" transform="translate(944.158203 0)"/>
     <use xlink:href="#DejaVuSans-6e" transform="translate(971.941406 0)"/>
     <use xlink:href="#DejaVuSans-67" transform="translate(1035.320312 0)"/>
     <use xlink:href="#DejaVuSans-2c" transform="translate(1098.796875 0)"/>
     <use xlink:href="#DejaVuSans-20" transform="translate(1130.583984 0)"/>
     <use xlink:href="#DejaVuSans-54" transform="translate(1162.371094 0)"/>
     <use xlink:href="#DejaVuSans-68" transform="translate(1223.455078 0)"/>
     <use xlink:href="#DejaVuSans-65" transform="translate(1286.833984 0)"/>
    </g>
    <!-- (2001) -->
    <g transform="translate(170.303438 362.612678) scale(0.1 -0.1)">
     <defs>
      <path id="DejaVuSans-28" d="M 1984 4856 
Q 1566 4138 1362 3434 
Q 1159 2731 1159 2009 
Q 1159 1288 1364 580 
Q 1569 -128 1984 -844 
L 1484 -844 
Q 1016 -109 783 600 
Q 550 1309 550 2009 
Q 550 2706 781 3412 
Q 1013 4119 1484 4856 
L 1984 4856 
z
" transform="scale(0.015625)"/>
      <path id="DejaVuSans-29" d="M 513 4856 
L 1013 4856 
Q 1481 4119 1714 3412 
Q 1947 2706 1947 2009 
Q 1947 1309 1714 600 
Q 1481 -109 1013 -844 
L 513 -844 
Q 928 -128 1133 580 
Q 1338 1288 1338 2009 
Q 1338 2731 1133 3434 
Q 928 4138 513 4856 
z
" transform="scale(0.015625)"/>
     </defs>
     <use xlink:href="#DejaVuSans-28"/>
     <use xlink:href="#DejaVuSans-32" transform="translate(39.013672 0)"/>
     <use xlink:href="#DejaVuSans-30" transform="translate(102.636719 0)"/>
     <use xlink:href="#DejaVuSans-30" transform="translate(166.259766 0)"/>
     <use xlink:href="#DejaVuSans-31" transform="translate(229.882812 0)"/>
     <use xlink:href="#DejaVuSans-29" transform="translate(293.505859 0)"/>
    </g>
   </g>
   <g id="text_14">
    <!-- Lord of the Rings: The Two -->
    <g transform="translate(272.260317 348.617565) scale(0.1 -0.1)">
     <use xlink:href="#DejaVuSans-4c"/>
     <use xlink:href="#DejaVuSans-6f" transform="translate(53.962891 0)"/>
     <use xlink:href="#DejaVuSans-72" transform="translate(115.144531 0)"/>
     <use xlink:href="#DejaVuSans-64" transform="translate(154.507812 0)"/>
     <use xlink:href="#DejaVuSans-20" transform="translate(217.984375 0)"/>
     <use xlink:href="#DejaVuSans-6f" transform="translate(249.771484 0)"/>
     <use xlink:href="#DejaVuSans-66" transform="translate(310.953125 0)"/>
     <use xlink:href="#DejaVuSans-20" transform="translate(346.158203 0)"/>
     <use xlink:href="#DejaVuSans-74" transform="translate(377.945312 0)"/>
     <use xlink:href="#DejaVuSans-68" transform="translate(417.154297 0)"/>
     <use xlink:href="#DejaVuSans-65" transform="translate(480.533203 0)"/>
     <use xlink:href="#DejaVuSans-20" transform="translate(542.056641 0)"/>
     <use xlink:href="#DejaVuSans-52" transform="translate(573.84375 0)"/>
     <use xlink:href="#DejaVuSans-69" transform="translate(643.326172 0)"/>
     <use xlink:href="#DejaVuSans-6e" transform="translate(671.109375 0)"/>
     <use xlink:href="#DejaVuSans-67" transform="translate(734.488281 0)"/>
     <use xlink:href="#DejaVuSans-73" transform="translate(797.964844 0)"/>
     <use xlink:href="#DejaVuSans-3a" transform="translate(850.064453 0)"/>
     <use xlink:href="#DejaVuSans-20" transform="translate(883.755859 0)"/>
     <use xlink:href="#DejaVuSans-54" transform="translate(915.542969 0)"/>
     <use xlink:href="#DejaVuSans-68" transform="translate(976.626953 0)"/>
     <use xlink:href="#DejaVuSans-65" transform="translate(1040.005859 0)"/>
     <use xlink:href="#DejaVuSans-20" transform="translate(1101.529297 0)"/>
     <use xlink:href="#DejaVuSans-54" transform="translate(1133.316406 0)"/>
     <use xlink:href="#DejaVuSans-77" transform="translate(1177.900391 0)"/>
     <use xlink:href="#DejaVuSans-6f" transform="translate(1259.6875 0)"/>
    </g>
    <!-- Towers, The (2002) -->
    <g transform="translate(290.520473 359.815377) scale(0.1 -0.1)">
     <use xlink:href="#DejaVuSans-54"/>
     <use xlink:href="#DejaVuSans-6f" transform="translate(44.083984 0)"/>
     <use xlink:href="#DejaVuSans-77" transform="translate(105.265625 0)"/>
     <use xlink:href="#DejaVuSans-65" transform="translate(187.052734 0)"/>
     <use xlink:href="#DejaVuSans-72" transform="translate(248.576172 0)"/>
     <use xlink:href="#DejaVuSans-73" transform="translate(289.689453 0)"/>
     <use xlink:href="#DejaVuSans-2c" transform="translate(341.789062 0)"/>
     <use xlink:href="#DejaVuSans-20" transform="translate(373.576172 0)"/>
     <use xlink:href="#DejaVuSans-54" transform="translate(405.363281 0)"/>
     <use xlink:href="#DejaVuSans-68" transform="translate(466.447266 0)"/>
     <use xlink:href="#DejaVuSans-65" transform="translate(529.826172 0)"/>
     <use xlink:href="#DejaVuSans-20" transform="translate(591.349609 0)"/>
     <use xlink:href="#DejaVuSans-28" transform="translate(623.136719 0)"/>
     <use xlink:href="#DejaVuSans-32" transform="translate(662.150391 0)"/>
     <use xlink:href="#DejaVuSans-30" transform="translate(725.773438 0)"/>
     <use xlink:href="#DejaVuSans-30" transform="translate(789.396484 0)"/>
     <use xlink:href="#DejaVuSans-32" transform="translate(853.019531 0)"/>
     <use xlink:href="#DejaVuSans-29" transform="translate(916.642578 0)"/>
    </g>
   </g>
   <g id="text_15">
    <!-- Lord of the Rings: The Return -->
    <g transform="translate(151.035051 384.194435) scale(0.1 -0.1)">
     <defs>
      <path id="DejaVuSans-75" d="M 544 1381 
L 544 3500 
L 1119 3500 
L 1119 1403 
Q 1119 906 1312 657 
Q 1506 409 1894 409 
Q 2359 409 2629 706 
Q 2900 1003 2900 1516 
L 2900 3500 
L 3475 3500 
L 3475 0 
L 2900 0 
L 2900 538 
Q 2691 219 2414 64 
Q 2138 -91 1772 -91 
Q 1169 -91 856 284 
Q 544 659 544 1381 
z
M 1991 3584 
L 1991 3584 
z
" transform="scale(0.015625)"/>
     </defs>
     <use xlink:href="#DejaVuSans-4c"/>
     <use xlink:href="#DejaVuSans-6f" transform="translate(53.962891 0)"/>
     <use xlink:href="#DejaVuSans-72" transform="translate(115.144531 0)"/>
     <use xlink:href="#DejaVuSans-64" transform="translate(154.507812 0)"/>
     <use xlink:href="#DejaVuSans-20" transform="translate(217.984375 0)"/>
     <use xlink:href="#DejaVuSans-6f" transform="translate(249.771484 0)"/>
     <use xlink:href="#DejaVuSans-66" transform="translate(310.953125 0)"/>
     <use xlink:href="#DejaVuSans-20" transform="translate(346.158203 0)"/>
     <use xlink:href="#DejaVuSans-74" transform="translate(377.945312 0)"/>
     <use xlink:href="#DejaVuSans-68" transform="translate(417.154297 0)"/>
     <use xlink:href="#DejaVuSans-65" transform="translate(480.533203 0)"/>
     <use xlink:href="#DejaVuSans-20" transform="translate(542.056641 0)"/>
     <use xlink:href="#DejaVuSans-52" transform="translate(573.84375 0)"/>
     <use xlink:href="#DejaVuSans-69" transform="translate(643.326172 0)"/>
     <use xlink:href="#DejaVuSans-6e" transform="translate(671.109375 0)"/>
     <use xlink:href="#DejaVuSans-67" transform="translate(734.488281 0)"/>
     <use xlink:href="#DejaVuSans-73" transform="translate(797.964844 0)"/>
     <use xlink:href="#DejaVuSans-3a" transform="translate(850.064453 0)"/>
     <use xlink:href="#DejaVuSans-20" transform="translate(883.755859 0)"/>
     <use xlink:href="#DejaVuSans-54" transform="translate(915.542969 0)"/>
     <use xlink:href="#DejaVuSans-68" transform="translate(976.626953 0)"/>
     <use xlink:href="#DejaVuSans-65" transform="translate(1040.005859 0)"/>
     <use xlink:href="#DejaVuSans-20" transform="translate(1101.529297 0)"/>
     <use xlink:href="#DejaVuSans-52" transform="translate(1133.316406 0)"/>
     <use xlink:href="#DejaVuSans-65" transform="translate(1198.298828 0)"/>
     <use xlink:href="#DejaVuSans-74" transform="translate(1259.822266 0)"/>
     <use xlink:href="#DejaVuSans-75" transform="translate(1299.03125 0)"/>
     <use xlink:href="#DejaVuSans-72" transform="translate(1362.410156 0)"/>
     <use xlink:href="#DejaVuSans-6e" transform="translate(1401.773438 0)"/>
    </g>
    <!-- of the King, The (2003) -->
    <g transform="translate(166.38427 395.392248) scale(0.1 -0.1)">
     <defs>
      <path id="DejaVuSans-4b" d="M 628 4666 
L 1259 4666 
L 1259 2694 
L 3353 4666 
L 4166 4666 
L 1850 2491 
L 4331 0 
L 3500 0 
L 1259 2247 
L 1259 0 
L 628 0 
L 628 4666 
z
" transform="scale(0.015625)"/>
     </defs>
     <use xlink:href="#DejaVuSans-6f"/>
     <use xlink:href="#DejaVuSans-66" transform="translate(61.181641 0)"/>
     <use xlink:href="#DejaVuSans-20" transform="translate(96.386719 0)"/>
     <use xlink:href="#DejaVuSans-74" transform="translate(128.173828 0)"/>
     <use xlink:href="#DejaVuSans-68" transform="translate(167.382812 0)"/>
     <use xlink:href="#DejaVuSans-65" transform="translate(230.761719 0)"/>
     <use xlink:href="#DejaVuSans-20" transform="translate(292.285156 0)"/>
     <use xlink:href="#DejaVuSans-4b" transform="translate(324.072266 0)"/>
     <use xlink:href="#DejaVuSans-69" transform="translate(389.648438 0)"/>
     <use xlink:href="#DejaVuSans-6e" transform="translate(417.431641 0)"/>
     <use xlink:href="#DejaVuSans-67" transform="translate(480.810547 0)"/>
     <use xlink:href="#DejaVuSans-2c" transform="translate(544.287109 0)"/>
     <use xlink:href="#DejaVuSans-20" transform="translate(576.074219 0)"/>
     <use xlink:href="#DejaVuSans-54" transform="translate(607.861328 0)"/>
     <use xlink:href="#DejaVuSans-68" transform="translate(668.945312 0)"/>
     <use xlink:href="#DejaVuSans-65" transform="translate(732.324219 0)"/>
     <use xlink:href="#DejaVuSans-20" transform="translate(793.847656 0)"/>
     <use xlink:href="#DejaVuSans-28" transform="translate(825.634766 0)"/>
     <use xlink:href="#DejaVuSans-32" transform="translate(864.648438 0)"/>
     <use xlink:href="#DejaVuSans-30" transform="translate(928.271484 0)"/>
     <use xlink:href="#DejaVuSans-30" transform="translate(991.894531 0)"/>
     <use xlink:href="#DejaVuSans-33" transform="translate(1055.517578 0)"/>
     <use xlink:href="#DejaVuSans-29" transform="translate(1119.140625 0)"/>
    </g>
   </g>
   <g id="text_16">
    <!-- Hotel Transylvania (2012) -->
    <g transform="translate(318.897149 383.117836) scale(0.1 -0.1)">
     <defs>
      <path id="DejaVuSans-48" d="M 628 4666 
L 1259 4666 
L 1259 2753 
L 3553 2753 
L 3553 4666 
L 4184 4666 
L 4184 0 
L 3553 0 
L 3553 2222 
L 1259 2222 
L 1259 0 
L 628 0 
L 628 4666 
z
" transform="scale(0.015625)"/>
      <path id="DejaVuSans-61" d="M 2194 1759 
Q 1497 1759 1228 1600 
Q 959 1441 959 1056 
Q 959 750 1161 570 
Q 1363 391 1709 391 
Q 2188 391 2477 730 
Q 2766 1069 2766 1631 
L 2766 1759 
L 2194 1759 
z
M 3341 1997 
L 3341 0 
L 2766 0 
L 2766 531 
Q 2569 213 2275 61 
Q 1981 -91 1556 -91 
Q 1019 -91 701 211 
Q 384 513 384 1019 
Q 384 1609 779 1909 
Q 1175 2209 1959 2209 
L 2766 2209 
L 2766 2266 
Q 2766 2663 2505 2880 
Q 2244 3097 1772 3097 
Q 1472 3097 1187 3025 
Q 903 2953 641 2809 
L 641 3341 
Q 956 3463 1253 3523 
Q 1550 3584 1831 3584 
Q 2591 3584 2966 3190 
Q 3341 2797 3341 1997 
z
" transform="scale(0.015625)"/>
      <path id="DejaVuSans-79" d="M 2059 -325 
Q 1816 -950 1584 -1140 
Q 1353 -1331 966 -1331 
L 506 -1331 
L 506 -850 
L 844 -850 
Q 1081 -850 1212 -737 
Q 1344 -625 1503 -206 
L 1606 56 
L 191 3500 
L 800 3500 
L 1894 763 
L 2988 3500 
L 3597 3500 
L 2059 -325 
z
" transform="scale(0.015625)"/>
      <path id="DejaVuSans-76" d="M 191 3500 
L 800 3500 
L 1894 563 
L 2988 3500 
L 3597 3500 
L 2284 0 
L 1503 0 
L 191 3500 
z
" transform="scale(0.015625)"/>
     </defs>
     <use xlink:href="#DejaVuSans-48"/>
     <use xlink:href="#DejaVuSans-6f" transform="translate(75.195312 0)"/>
     <use xlink:href="#DejaVuSans-74" transform="translate(136.376953 0)"/>
     <use xlink:href="#DejaVuSans-65" transform="translate(175.585938 0)"/>
     <use xlink:href="#DejaVuSans-6c" transform="translate(237.109375 0)"/>
     <use xlink:href="#DejaVuSans-20" transform="translate(264.892578 0)"/>
     <use xlink:href="#DejaVuSans-54" transform="translate(296.679688 0)"/>
     <use xlink:href="#DejaVuSans-72" transform="translate(343.013672 0)"/>
     <use xlink:href="#DejaVuSans-61" transform="translate(384.126953 0)"/>
     <use xlink:href="#DejaVuSans-6e" transform="translate(445.40625 0)"/>
     <use xlink:href="#DejaVuSans-73" transform="translate(508.785156 0)"/>
     <use xlink:href="#DejaVuSans-79" transform="translate(560.884766 0)"/>
     <use xlink:href="#DejaVuSans-6c" transform="translate(620.064453 0)"/>
     <use xlink:href="#DejaVuSans-76" transform="translate(647.847656 0)"/>
     <use xlink:href="#DejaVuSans-61" transform="translate(707.027344 0)"/>
     <use xlink:href="#DejaVuSans-6e" transform="translate(768.306641 0)"/>
     <use xlink:href="#DejaVuSans-69" transform="translate(831.685547 0)"/>
     <use xlink:href="#DejaVuSans-61" transform="translate(859.46875 0)"/>
     <use xlink:href="#DejaVuSans-20" transform="translate(920.748047 0)"/>
     <use xlink:href="#DejaVuSans-28" transform="translate(952.535156 0)"/>
     <use xlink:href="#DejaVuSans-32" transform="translate(991.548828 0)"/>
     <use xlink:href="#DejaVuSans-30" transform="translate(1055.171875 0)"/>
     <use xlink:href="#DejaVuSans-31" transform="translate(1118.794922 0)"/>
     <use xlink:href="#DejaVuSans-32" transform="translate(1182.417969 0)"/>
     <use xlink:href="#DejaVuSans-29" transform="translate(1246.041016 0)"/>
    </g>
   </g>
   <g id="text_17">
    <!-- Despicable Me 2 (2013) -->
    <g transform="translate(330.559618 404.164755) scale(0.1 -0.1)">
     <defs>
      <path id="DejaVuSans-44" d="M 1259 4147 
L 1259 519 
L 2022 519 
Q 2988 519 3436 956 
Q 3884 1394 3884 2338 
Q 3884 3275 3436 3711 
Q 2988 4147 2022 4147 
L 1259 4147 
z
M 628 4666 
L 1925 4666 
Q 3281 4666 3915 4102 
Q 4550 3538 4550 2338 
Q 4550 1131 3912 565 
Q 3275 0 1925 0 
L 628 0 
L 628 4666 
z
" transform="scale(0.015625)"/>
      <path id="DejaVuSans-63" d="M 3122 3366 
L 3122 2828 
Q 2878 2963 2633 3030 
Q 2388 3097 2138 3097 
Q 1578 3097 1268 2742 
Q 959 2388 959 1747 
Q 959 1106 1268 751 
Q 1578 397 2138 397 
Q 2388 397 2633 464 
Q 2878 531 3122 666 
L 3122 134 
Q 2881 22 2623 -34 
Q 2366 -91 2075 -91 
Q 1284 -91 818 406 
Q 353 903 353 1747 
Q 353 2603 823 3093 
Q 1294 3584 2113 3584 
Q 2378 3584 2631 3529 
Q 2884 3475 3122 3366 
z
" transform="scale(0.015625)"/>
      <path id="DejaVuSans-62" d="M 3116 1747 
Q 3116 2381 2855 2742 
Q 2594 3103 2138 3103 
Q 1681 3103 1420 2742 
Q 1159 2381 1159 1747 
Q 1159 1113 1420 752 
Q 1681 391 2138 391 
Q 2594 391 2855 752 
Q 3116 1113 3116 1747 
z
M 1159 2969 
Q 1341 3281 1617 3432 
Q 1894 3584 2278 3584 
Q 2916 3584 3314 3078 
Q 3713 2572 3713 1747 
Q 3713 922 3314 415 
Q 2916 -91 2278 -91 
Q 1894 -91 1617 61 
Q 1341 213 1159 525 
L 1159 0 
L 581 0 
L 581 4863 
L 1159 4863 
L 1159 2969 
z
" transform="scale(0.015625)"/>
      <path id="DejaVuSans-4d" d="M 628 4666 
L 1569 4666 
L 2759 1491 
L 3956 4666 
L 4897 4666 
L 4897 0 
L 4281 0 
L 4281 4097 
L 3078 897 
L 2444 897 
L 1241 4097 
L 1241 0 
L 628 0 
L 628 4666 
z
" transform="scale(0.015625)"/>
     </defs>
     <use xlink:href="#DejaVuSans-44"/>
     <use xlink:href="#DejaVuSans-65" transform="translate(77.001953 0)"/>
     <use xlink:href="#DejaVuSans-73" transform="translate(138.525391 0)"/>
     <use xlink:href="#DejaVuSans-70" transform="translate(190.625 0)"/>
     <use xlink:href="#DejaVuSans-69" transform="translate(254.101562 0)"/>
     <use xlink:href="#DejaVuSans-63" transform="translate(281.884766 0)"/>
     <use xlink:href="#DejaVuSans-61" transform="translate(336.865234 0)"/>
     <use xlink:href="#DejaVuSans-62" transform="translate(398.144531 0)"/>
     <use xlink:href="#DejaVuSans-6c" transform="translate(461.621094 0)"/>
     <use xlink:href="#DejaVuSans-65" transform="translate(489.404297 0)"/>
     <use xlink:href="#DejaVuSans-20" transform="translate(550.927734 0)"/>
     <use xlink:href="#DejaVuSans-4d" transform="translate(582.714844 0)"/>
     <use xlink:href="#DejaVuSans-65" transform="translate(668.994141 0)"/>
     <use xlink:href="#DejaVuSans-20" transform="translate(730.517578 0)"/>
     <use xlink:href="#DejaVuSans-32" transform="translate(762.304688 0)"/>
     <use xlink:href="#DejaVuSans-20" transform="translate(825.927734 0)"/>
     <use xlink:href="#DejaVuSans-28" transform="translate(857.714844 0)"/>
     <use xlink:href="#DejaVuSans-32" transform="translate(896.728516 0)"/>
     <use xlink:href="#DejaVuSans-30" transform="translate(960.351562 0)"/>
     <use xlink:href="#DejaVuSans-31" transform="translate(1023.974609 0)"/>
     <use xlink:href="#DejaVuSans-33" transform="translate(1087.597656 0)"/>
     <use xlink:href="#DejaVuSans-29" transform="translate(1151.220703 0)"/>
    </g>
   </g>
   <g id="text_18">
    <!-- Lord of the Rings, The (1978) -->
    <g transform="translate(182.578425 221.584778) scale(0.1 -0.1)">
     <defs>
      <path id="DejaVuSans-39" d="M 703 97 
L 703 672 
Q 941 559 1184 500 
Q 1428 441 1663 441 
Q 2288 441 2617 861 
Q 2947 1281 2994 2138 
Q 2813 1869 2534 1725 
Q 2256 1581 1919 1581 
Q 1219 1581 811 2004 
Q 403 2428 403 3163 
Q 403 3881 828 4315 
Q 1253 4750 1959 4750 
Q 2769 4750 3195 4129 
Q 3622 3509 3622 2328 
Q 3622 1225 3098 567 
Q 2575 -91 1691 -91 
Q 1453 -91 1209 -44 
Q 966 3 703 97 
z
M 1959 2075 
Q 2384 2075 2632 2365 
Q 2881 2656 2881 3163 
Q 2881 3666 2632 3958 
Q 2384 4250 1959 4250 
Q 1534 4250 1286 3958 
Q 1038 3666 1038 3163 
Q 1038 2656 1286 2365 
Q 1534 2075 1959 2075 
z
" transform="scale(0.015625)"/>
      <path id="DejaVuSans-37" d="M 525 4666 
L 3525 4666 
L 3525 4397 
L 1831 0 
L 1172 0 
L 2766 4134 
L 525 4134 
L 525 4666 
z
" transform="scale(0.015625)"/>
      <path id="DejaVuSans-38" d="M 2034 2216 
Q 1584 2216 1326 1975 
Q 1069 1734 1069 1313 
Q 1069 891 1326 650 
Q 1584 409 2034 409 
Q 2484 409 2743 651 
Q 3003 894 3003 1313 
Q 3003 1734 2745 1975 
Q 2488 2216 2034 2216 
z
M 1403 2484 
Q 997 2584 770 2862 
Q 544 3141 544 3541 
Q 544 4100 942 4425 
Q 1341 4750 2034 4750 
Q 2731 4750 3128 4425 
Q 3525 4100 3525 3541 
Q 3525 3141 3298 2862 
Q 3072 2584 2669 2484 
Q 3125 2378 3379 2068 
Q 3634 1759 3634 1313 
Q 3634 634 3220 271 
Q 2806 -91 2034 -91 
Q 1263 -91 848 271 
Q 434 634 434 1313 
Q 434 1759 690 2068 
Q 947 2378 1403 2484 
z
M 1172 3481 
Q 1172 3119 1398 2916 
Q 1625 2713 2034 2713 
Q 2441 2713 2670 2916 
Q 2900 3119 2900 3481 
Q 2900 3844 2670 4047 
Q 2441 4250 2034 4250 
Q 1625 4250 1398 4047 
Q 1172 3844 1172 3481 
z
" transform="scale(0.015625)"/>
     </defs>
     <use xlink:href="#DejaVuSans-4c"/>
     <use xlink:href="#DejaVuSans-6f" transform="translate(53.962891 0)"/>
     <use xlink:href="#DejaVuSans-72" transform="translate(115.144531 0)"/>
     <use xlink:href="#DejaVuSans-64" transform="translate(154.507812 0)"/>
     <use xlink:href="#DejaVuSans-20" transform="translate(217.984375 0)"/>
     <use xlink:href="#DejaVuSans-6f" transform="translate(249.771484 0)"/>
     <use xlink:href="#DejaVuSans-66" transform="translate(310.953125 0)"/>
     <use xlink:href="#DejaVuSans-20" transform="translate(346.158203 0)"/>
     <use xlink:href="#DejaVuSans-74" transform="translate(377.945312 0)"/>
     <use xlink:href="#DejaVuSans-68" transform="translate(417.154297 0)"/>
     <use xlink:href="#DejaVuSans-65" transform="translate(480.533203 0)"/>
     <use xlink:href="#DejaVuSans-20" transform="translate(542.056641 0)"/>
     <use xlink:href="#DejaVuSans-52" transform="translate(573.84375 0)"/>
     <use xlink:href="#DejaVuSans-69" transform="translate(643.326172 0)"/>
     <use xlink:href="#DejaVuSans-6e" transform="translate(671.109375 0)"/>
     <use xlink:href="#DejaVuSans-67" transform="translate(734.488281 0)"/>
     <use xlink:href="#DejaVuSans-73" transform="translate(797.964844 0)"/>
     <use xlink:href="#DejaVuSans-2c" transform="translate(850.064453 0)"/>
     <use xlink:href="#DejaVuSans-20" transform="translate(881.851562 0)"/>
     <use xlink:href="#DejaVuSans-54" transform="translate(913.638672 0)"/>
     <use xlink:href="#DejaVuSans-68" transform="translate(974.722656 0)"/>
     <use xlink:href="#DejaVuSans-65" transform="translate(1038.101562 0)"/>
     <use xlink:href="#DejaVuSans-20" transform="translate(1099.625 0)"/>
     <use xlink:href="#DejaVuSans-28" transform="translate(1131.412109 0)"/>
     <use xlink:href="#DejaVuSans-31" transform="translate(1170.425781 0)"/>
     <use xlink:href="#DejaVuSans-39" transform="translate(1234.048828 0)"/>
     <use xlink:href="#DejaVuSans-37" transform="translate(1297.671875 0)"/>
     <use xlink:href="#DejaVuSans-38" transform="translate(1361.294922 0)"/>
     <use xlink:href="#DejaVuSans-29" transform="translate(1424.917969 0)"/>
    </g>
   </g>
   <g id="text_19">
    <!-- Despicable Me (2010) -->
    <g transform="translate(253.725211 420.19904) scale(0.1 -0.1)">
     <use xlink:href="#DejaVuSans-44"/>
     <use xlink:href="#DejaVuSans-65" transform="translate(77.001953 0)"/>
     <use xlink:href="#DejaVuSans-73" transform="translate(138.525391 0)"/>
     <use xlink:href="#DejaVuSans-70" transform="translate(190.625 0)"/>
     <use xlink:href="#DejaVuSans-69" transform="translate(254.101562 0)"/>
     <use xlink:href="#DejaVuSans-63" transform="translate(281.884766 0)"/>
     <use xlink:href="#DejaVuSans-61" transform="translate(336.865234 0)"/>
     <use xlink:href="#DejaVuSans-62" transform="translate(398.144531 0)"/>
     <use xlink:href="#DejaVuSans-6c" transform="translate(461.621094 0)"/>
     <use xlink:href="#DejaVuSans-65" transform="translate(489.404297 0)"/>
     <use xlink:href="#DejaVuSans-20" transform="translate(550.927734 0)"/>
     <use xlink:href="#DejaVuSans-4d" transform="translate(582.714844 0)"/>
     <use xlink:href="#DejaVuSans-65" transform="translate(668.994141 0)"/>
     <use xlink:href="#DejaVuSans-20" transform="translate(730.517578 0)"/>
     <use xlink:href="#DejaVuSans-28" transform="translate(762.304688 0)"/>
     <use xlink:href="#DejaVuSans-32" transform="translate(801.318359 0)"/>
     <use xlink:href="#DejaVuSans-30" transform="translate(864.941406 0)"/>
     <use xlink:href="#DejaVuSans-31" transform="translate(928.564453 0)"/>
     <use xlink:href="#DejaVuSans-30" transform="translate(992.1875 0)"/>
     <use xlink:href="#DejaVuSans-29" transform="translate(1055.810547 0)"/>
    </g>
   </g>
   <g id="text_20">
    <!-- Despicable Me 3 (2017) -->
    <g transform="translate(367.992536 321.215532) scale(0.1 -0.1)">
     <use xlink:href="#DejaVuSans-44"/>
     <use xlink:href="#DejaVuSans-65" transform="translate(77.001953 0)"/>
     <use xlink:href="#DejaVuSans-73" transform="translate(138.525391 0)"/>
     <use xlink:href="#DejaVuSans-70" transform="translate(190.625 0)"/>
     <use xlink:href="#DejaVuSans-69" transform="translate(254.101562 0)"/>
     <use xlink:href="#DejaVuSans-63" transform="translate(281.884766 0)"/>
     <use xlink:href="#DejaVuSans-61" transform="translate(336.865234 0)"/>
     <use xlink:href="#DejaVuSans-62" transform="translate(398.144531 0)"/>
     <use xlink:href="#DejaVuSans-6c" transform="translate(461.621094 0)"/>
     <use xlink:href="#DejaVuSans-65" transform="translate(489.404297 0)"/>
     <use xlink:href="#DejaVuSans-20" transform="translate(550.927734 0)"/>
     <use xlink:href="#DejaVuSans-4d" transform="translate(582.714844 0)"/>
     <use xlink:href="#DejaVuSans-65" transform="translate(668.994141 0)"/>
     <use xlink:href="#DejaVuSans-20" transform="translate(730.517578 0)"/>
     <use xlink:href="#DejaVuSans-33" transform="translate(762.304688 0)"/>
     <use xlink:href="#DejaVuSans-20" transform="translate(825.927734 0)"/>
     <use xlink:href="#DejaVuSans-28" transform="translate(857.714844 0)"/>
     <use xlink:href="#DejaVuSans-32" transform="translate(896.728516 0)"/>
     <use xlink:href="#DejaVuSans-30" transform="translate(960.351562 0)"/>
     <use xlink:href="#DejaVuSans-31" transform="translate(1023.974609 0)"/>
     <use xlink:href="#DejaVuSans-37" transform="translate(1087.597656 0)"/>
     <use xlink:href="#DejaVuSans-29" transform="translate(1151.220703 0)"/>
    </g>
   </g>
   <g id="text_21">
    <!-- Hotel Transylvania 3: Summer -->
    <g transform="translate(458.672103 398.4474) scale(0.1 -0.1)">
     <defs>
      <path id="DejaVuSans-53" d="M 3425 4513 
L 3425 3897 
Q 3066 4069 2747 4153 
Q 2428 4238 2131 4238 
Q 1616 4238 1336 4038 
Q 1056 3838 1056 3469 
Q 1056 3159 1242 3001 
Q 1428 2844 1947 2747 
L 2328 2669 
Q 3034 2534 3370 2195 
Q 3706 1856 3706 1288 
Q 3706 609 3251 259 
Q 2797 -91 1919 -91 
Q 1588 -91 1214 -16 
Q 841 59 441 206 
L 441 856 
Q 825 641 1194 531 
Q 1563 422 1919 422 
Q 2459 422 2753 634 
Q 3047 847 3047 1241 
Q 3047 1584 2836 1778 
Q 2625 1972 2144 2069 
L 1759 2144 
Q 1053 2284 737 2584 
Q 422 2884 422 3419 
Q 422 4038 858 4394 
Q 1294 4750 2059 4750 
Q 2388 4750 2728 4690 
Q 3069 4631 3425 4513 
z
" transform="scale(0.015625)"/>
      <path id="DejaVuSans-6d" d="M 3328 2828 
Q 3544 3216 3844 3400 
Q 4144 3584 4550 3584 
Q 5097 3584 5394 3201 
Q 5691 2819 5691 2113 
L 5691 0 
L 5113 0 
L 5113 2094 
Q 5113 2597 4934 2840 
Q 4756 3084 4391 3084 
Q 3944 3084 3684 2787 
Q 3425 2491 3425 1978 
L 3425 0 
L 2847 0 
L 2847 2094 
Q 2847 2600 2669 2842 
Q 2491 3084 2119 3084 
Q 1678 3084 1418 2786 
Q 1159 2488 1159 1978 
L 1159 0 
L 581 0 
L 581 3500 
L 1159 3500 
L 1159 2956 
Q 1356 3278 1631 3431 
Q 1906 3584 2284 3584 
Q 2666 3584 2933 3390 
Q 3200 3197 3328 2828 
z
" transform="scale(0.015625)"/>
     </defs>
     <use xlink:href="#DejaVuSans-48"/>
     <use xlink:href="#DejaVuSans-6f" transform="translate(75.195312 0)"/>
     <use xlink:href="#DejaVuSans-74" transform="translate(136.376953 0)"/>
     <use xlink:href="#DejaVuSans-65" transform="translate(175.585938 0)"/>
     <use xlink:href="#DejaVuSans-6c" transform="translate(237.109375 0)"/>
     <use xlink:href="#DejaVuSans-20" transform="translate(264.892578 0)"/>
     <use xlink:href="#DejaVuSans-54" transform="translate(296.679688 0)"/>
     <use xlink:href="#DejaVuSans-72" transform="translate(343.013672 0)"/>
     <use xlink:href="#DejaVuSans-61" transform="translate(384.126953 0)"/>
     <use xlink:href="#DejaVuSans-6e" transform="translate(445.40625 0)"/>
     <use xlink:href="#DejaVuSans-73" transform="translate(508.785156 0)"/>
     <use xlink:href="#DejaVuSans-79" transform="translate(560.884766 0)"/>
     <use xlink:href="#DejaVuSans-6c" transform="translate(620.064453 0)"/>
     <use xlink:href="#DejaVuSans-76" transform="translate(647.847656 0)"/>
     <use xlink:href="#DejaVuSans-61" transform="translate(707.027344 0)"/>
     <use xlink:href="#DejaVuSans-6e" transform="translate(768.306641 0)"/>
     <use xlink:href="#DejaVuSans-69" transform="translate(831.685547 0)"/>
     <use xlink:href="#DejaVuSans-61" transform="translate(859.46875 0)"/>
     <use xlink:href="#DejaVuSans-20" transform="translate(920.748047 0)"/>
     <use xlink:href="#DejaVuSans-33" transform="translate(952.535156 0)"/>
     <use xlink:href="#DejaVuSans-3a" transform="translate(1016.158203 0)"/>
     <use xlink:href="#DejaVuSans-20" transform="translate(1049.849609 0)"/>
     <use xlink:href="#DejaVuSans-53" transform="translate(1081.636719 0)"/>
     <use xlink:href="#DejaVuSans-75" transform="translate(1145.113281 0)"/>
     <use xlink:href="#DejaVuSans-6d" transform="translate(1208.492188 0)"/>
     <use xlink:href="#DejaVuSans-6d" transform="translate(1305.904297 0)"/>
     <use xlink:href="#DejaVuSans-65" transform="translate(1403.316406 0)"/>
     <use xlink:href="#DejaVuSans-72" transform="translate(1464.839844 0)"/>
    </g>
    <!-- Vacation (2018) -->
    <g transform="translate(494.265853 409.645213) scale(0.1 -0.1)">
     <defs>
      <path id="DejaVuSans-56" d="M 1831 0 
L 50 4666 
L 709 4666 
L 2188 738 
L 3669 4666 
L 4325 4666 
L 2547 0 
L 1831 0 
z
" transform="scale(0.015625)"/>
     </defs>
     <use xlink:href="#DejaVuSans-56"/>
     <use xlink:href="#DejaVuSans-61" transform="translate(60.658203 0)"/>
     <use xlink:href="#DejaVuSans-63" transform="translate(121.9375 0)"/>
     <use xlink:href="#DejaVuSans-61" transform="translate(176.917969 0)"/>
     <use xlink:href="#DejaVuSans-74" transform="translate(238.197266 0)"/>
     <use xlink:href="#DejaVuSans-69" transform="translate(277.40625 0)"/>
     <use xlink:href="#DejaVuSans-6f" transform="translate(305.189453 0)"/>
     <use xlink:href="#DejaVuSans-6e" transform="translate(366.371094 0)"/>
     <use xlink:href="#DejaVuSans-20" transform="translate(429.75 0)"/>
     <use xlink:href="#DejaVuSans-28" transform="translate(461.537109 0)"/>
     <use xlink:href="#DejaVuSans-32" transform="translate(500.550781 0)"/>
     <use xlink:href="#DejaVuSans-30" transform="translate(564.173828 0)"/>
     <use xlink:href="#DejaVuSans-31" transform="translate(627.796875 0)"/>
     <use xlink:href="#DejaVuSans-38" transform="translate(691.419922 0)"/>
     <use xlink:href="#DejaVuSans-29" transform="translate(755.042969 0)"/>
    </g>
   </g>
   <g id="text_22">
    <!-- Hotel Transylvania 2 (2015) -->
    <g transform="translate(414.480599 369.55233) scale(0.1 -0.1)">
     <defs>
      <path id="DejaVuSans-35" d="M 691 4666 
L 3169 4666 
L 3169 4134 
L 1269 4134 
L 1269 2991 
Q 1406 3038 1543 3061 
Q 1681 3084 1819 3084 
Q 2600 3084 3056 2656 
Q 3513 2228 3513 1497 
Q 3513 744 3044 326 
Q 2575 -91 1722 -91 
Q 1428 -91 1123 -41 
Q 819 9 494 109 
L 494 744 
Q 775 591 1075 516 
Q 1375 441 1709 441 
Q 2250 441 2565 725 
Q 2881 1009 2881 1497 
Q 2881 1984 2565 2268 
Q 2250 2553 1709 2553 
Q 1456 2553 1204 2497 
Q 953 2441 691 2322 
L 691 4666 
z
" transform="scale(0.015625)"/>
     </defs>
     <use xlink:href="#DejaVuSans-48"/>
     <use xlink:href="#DejaVuSans-6f" transform="translate(75.195312 0)"/>
     <use xlink:href="#DejaVuSans-74" transform="translate(136.376953 0)"/>
     <use xlink:href="#DejaVuSans-65" transform="translate(175.585938 0)"/>
     <use xlink:href="#DejaVuSans-6c" transform="translate(237.109375 0)"/>
     <use xlink:href="#DejaVuSans-20" transform="translate(264.892578 0)"/>
     <use xlink:href="#DejaVuSans-54" transform="translate(296.679688 0)"/>
     <use xlink:href="#DejaVuSans-72" transform="translate(343.013672 0)"/>
     <use xlink:href="#DejaVuSans-61" transform="translate(384.126953 0)"/>
     <use xlink:href="#DejaVuSans-6e" transform="translate(445.40625 0)"/>
     <use xlink:href="#DejaVuSans-73" transform="translate(508.785156 0)"/>
     <use xlink:href="#DejaVuSans-79" transform="translate(560.884766 0)"/>
     <use xlink:href="#DejaVuSans-6c" transform="translate(620.064453 0)"/>
     <use xlink:href="#DejaVuSans-76" transform="translate(647.847656 0)"/>
     <use xlink:href="#DejaVuSans-61" transform="translate(707.027344 0)"/>
     <use xlink:href="#DejaVuSans-6e" transform="translate(768.306641 0)"/>
     <use xlink:href="#DejaVuSans-69" transform="translate(831.685547 0)"/>
     <use xlink:href="#DejaVuSans-61" transform="translate(859.46875 0)"/>
     <use xlink:href="#DejaVuSans-20" transform="translate(920.748047 0)"/>
     <use xlink:href="#DejaVuSans-32" transform="translate(952.535156 0)"/>
     <use xlink:href="#DejaVuSans-20" transform="translate(1016.158203 0)"/>
     <use xlink:href="#DejaVuSans-28" transform="translate(1047.945312 0)"/>
     <use xlink:href="#DejaVuSans-32" transform="translate(1086.958984 0)"/>
     <use xlink:href="#DejaVuSans-30" transform="translate(1150.582031 0)"/>
     <use xlink:href="#DejaVuSans-31" transform="translate(1214.205078 0)"/>
     <use xlink:href="#DejaVuSans-35" transform="translate(1277.828125 0)"/>
     <use xlink:href="#DejaVuSans-29" transform="translate(1341.451172 0)"/>
    </g>
   </g>
   <g id="text_23">
    <!-- Fifty Shades of Grey (2015) -->
    <g transform="translate(507.428655 176.620434) scale(0.1 -0.1)">
     <defs>
      <path id="DejaVuSans-47" d="M 3809 666 
L 3809 1919 
L 2778 1919 
L 2778 2438 
L 4434 2438 
L 4434 434 
Q 4069 175 3628 42 
Q 3188 -91 2688 -91 
Q 1594 -91 976 548 
Q 359 1188 359 2328 
Q 359 3472 976 4111 
Q 1594 4750 2688 4750 
Q 3144 4750 3555 4637 
Q 3966 4525 4313 4306 
L 4313 3634 
Q 3963 3931 3569 4081 
Q 3175 4231 2741 4231 
Q 1884 4231 1454 3753 
Q 1025 3275 1025 2328 
Q 1025 1384 1454 906 
Q 1884 428 2741 428 
Q 3075 428 3337 486 
Q 3600 544 3809 666 
z
" transform="scale(0.015625)"/>
     </defs>
     <use xlink:href="#DejaVuSans-46"/>
     <use xlink:href="#DejaVuSans-69" transform="translate(50.269531 0)"/>
     <use xlink:href="#DejaVuSans-66" transform="translate(78.052734 0)"/>
     <use xlink:href="#DejaVuSans-74" transform="translate(111.507812 0)"/>
     <use xlink:href="#DejaVuSans-79" transform="translate(150.716797 0)"/>
     <use xlink:href="#DejaVuSans-20" transform="translate(209.896484 0)"/>
     <use xlink:href="#DejaVuSans-53" transform="translate(241.683594 0)"/>
     <use xlink:href="#DejaVuSans-68" transform="translate(305.160156 0)"/>
     <use xlink:href="#DejaVuSans-61" transform="translate(368.539062 0)"/>
     <use xlink:href="#DejaVuSans-64" transform="translate(429.818359 0)"/>
     <use xlink:href="#DejaVuSans-65" transform="translate(493.294922 0)"/>
     <use xlink:href="#DejaVuSans-73" transform="translate(554.818359 0)"/>
     <use xlink:href="#DejaVuSans-20" transform="translate(606.917969 0)"/>
     <use xlink:href="#DejaVuSans-6f" transform="translate(638.705078 0)"/>
     <use xlink:href="#DejaVuSans-66" transform="translate(699.886719 0)"/>
     <use xlink:href="#DejaVuSans-20" transform="translate(735.091797 0)"/>
     <use xlink:href="#DejaVuSans-47" transform="translate(766.878906 0)"/>
     <use xlink:href="#DejaVuSans-72" transform="translate(844.369141 0)"/>
     <use xlink:href="#DejaVuSans-65" transform="translate(883.232422 0)"/>
     <use xlink:href="#DejaVuSans-79" transform="translate(944.755859 0)"/>
     <use xlink:href="#DejaVuSans-20" transform="translate(1003.935547 0)"/>
     <use xlink:href="#DejaVuSans-28" transform="translate(1035.722656 0)"/>
     <use xlink:href="#DejaVuSans-32" transform="translate(1074.736328 0)"/>
     <use xlink:href="#DejaVuSans-30" transform="translate(1138.359375 0)"/>
     <use xlink:href="#DejaVuSans-31" transform="translate(1201.982422 0)"/>
     <use xlink:href="#DejaVuSans-35" transform="translate(1265.605469 0)"/>
     <use xlink:href="#DejaVuSans-29" transform="translate(1329.228516 0)"/>
    </g>
   </g>
   <g id="text_24">
    <!-- Fifty Shades of Black (2016) -->
    <g transform="translate(323.135337 169.053389) scale(0.1 -0.1)">
     <defs>
      <path id="DejaVuSans-42" d="M 1259 2228 
L 1259 519 
L 2272 519 
Q 2781 519 3026 730 
Q 3272 941 3272 1375 
Q 3272 1813 3026 2020 
Q 2781 2228 2272 2228 
L 1259 2228 
z
M 1259 4147 
L 1259 2741 
L 2194 2741 
Q 2656 2741 2882 2914 
Q 3109 3088 3109 3444 
Q 3109 3797 2882 3972 
Q 2656 4147 2194 4147 
L 1259 4147 
z
M 628 4666 
L 2241 4666 
Q 2963 4666 3353 4366 
Q 3744 4066 3744 3513 
Q 3744 3084 3544 2831 
Q 3344 2578 2956 2516 
Q 3422 2416 3680 2098 
Q 3938 1781 3938 1306 
Q 3938 681 3513 340 
Q 3088 0 2303 0 
L 628 0 
L 628 4666 
z
" transform="scale(0.015625)"/>
      <path id="DejaVuSans-6b" d="M 581 4863 
L 1159 4863 
L 1159 1991 
L 2875 3500 
L 3609 3500 
L 1753 1863 
L 3688 0 
L 2938 0 
L 1159 1709 
L 1159 0 
L 581 0 
L 581 4863 
z
" transform="scale(0.015625)"/>
      <path id="DejaVuSans-36" d="M 2113 2584 
Q 1688 2584 1439 2293 
Q 1191 2003 1191 1497 
Q 1191 994 1439 701 
Q 1688 409 2113 409 
Q 2538 409 2786 701 
Q 3034 994 3034 1497 
Q 3034 2003 2786 2293 
Q 2538 2584 2113 2584 
z
M 3366 4563 
L 3366 3988 
Q 3128 4100 2886 4159 
Q 2644 4219 2406 4219 
Q 1781 4219 1451 3797 
Q 1122 3375 1075 2522 
Q 1259 2794 1537 2939 
Q 1816 3084 2150 3084 
Q 2853 3084 3261 2657 
Q 3669 2231 3669 1497 
Q 3669 778 3244 343 
Q 2819 -91 2113 -91 
Q 1303 -91 875 529 
Q 447 1150 447 2328 
Q 447 3434 972 4092 
Q 1497 4750 2381 4750 
Q 2619 4750 2861 4703 
Q 3103 4656 3366 4563 
z
" transform="scale(0.015625)"/>
     </defs>
     <use xlink:href="#DejaVuSans-46"/>
     <use xlink:href="#DejaVuSans-69" transform="translate(50.269531 0)"/>
     <use xlink:href="#DejaVuSans-66" transform="translate(78.052734 0)"/>
     <use xlink:href="#DejaVuSans-74" transform="translate(111.507812 0)"/>
     <use xlink:href="#DejaVuSans-79" transform="translate(150.716797 0)"/>
     <use xlink:href="#DejaVuSans-20" transform="translate(209.896484 0)"/>
     <use xlink:href="#DejaVuSans-53" transform="translate(241.683594 0)"/>
     <use xlink:href="#DejaVuSans-68" transform="translate(305.160156 0)"/>
     <use xlink:href="#DejaVuSans-61" transform="translate(368.539062 0)"/>
     <use xlink:href="#DejaVuSans-64" transform="translate(429.818359 0)"/>
     <use xlink:href="#DejaVuSans-65" transform="translate(493.294922 0)"/>
     <use xlink:href="#DejaVuSans-73" transform="translate(554.818359 0)"/>
     <use xlink:href="#DejaVuSans-20" transform="translate(606.917969 0)"/>
     <use xlink:href="#DejaVuSans-6f" transform="translate(638.705078 0)"/>
     <use xlink:href="#DejaVuSans-66" transform="translate(699.886719 0)"/>
     <use xlink:href="#DejaVuSans-20" transform="translate(735.091797 0)"/>
     <use xlink:href="#DejaVuSans-42" transform="translate(766.878906 0)"/>
     <use xlink:href="#DejaVuSans-6c" transform="translate(835.482422 0)"/>
     <use xlink:href="#DejaVuSans-61" transform="translate(863.265625 0)"/>
     <use xlink:href="#DejaVuSans-63" transform="translate(924.544922 0)"/>
     <use xlink:href="#DejaVuSans-6b" transform="translate(979.525391 0)"/>
     <use xlink:href="#DejaVuSans-20" transform="translate(1037.435547 0)"/>
     <use xlink:href="#DejaVuSans-28" transform="translate(1069.222656 0)"/>
     <use xlink:href="#DejaVuSans-32" transform="translate(1108.236328 0)"/>
     <use xlink:href="#DejaVuSans-30" transform="translate(1171.859375 0)"/>
     <use xlink:href="#DejaVuSans-31" transform="translate(1235.482422 0)"/>
     <use xlink:href="#DejaVuSans-36" transform="translate(1299.105469 0)"/>
     <use xlink:href="#DejaVuSans-29" transform="translate(1362.728516 0)"/>
    </g>
   </g>
   <g id="text_25">
    <!-- Hotel Transylvania: -->
    <g transform="translate(421.753105 451.66316) scale(0.1 -0.1)">
     <use xlink:href="#DejaVuSans-48"/>
     <use xlink:href="#DejaVuSans-6f" transform="translate(75.195312 0)"/>
     <use xlink:href="#DejaVuSans-74" transform="translate(136.376953 0)"/>
     <use xlink:href="#DejaVuSans-65" transform="translate(175.585938 0)"/>
     <use xlink:href="#DejaVuSans-6c" transform="translate(237.109375 0)"/>
     <use xlink:href="#DejaVuSans-20" transform="translate(264.892578 0)"/>
     <use xlink:href="#DejaVuSans-54" transform="translate(296.679688 0)"/>
     <use xlink:href="#DejaVuSans-72" transform="translate(343.013672 0)"/>
     <use xlink:href="#DejaVuSans-61" transform="translate(384.126953 0)"/>
     <use xlink:href="#DejaVuSans-6e" transform="translate(445.40625 0)"/>
     <use xlink:href="#DejaVuSans-73" transform="translate(508.785156 0)"/>
     <use xlink:href="#DejaVuSans-79" transform="translate(560.884766 0)"/>
     <use xlink:href="#DejaVuSans-6c" transform="translate(620.064453 0)"/>
     <use xlink:href="#DejaVuSans-76" transform="translate(647.847656 0)"/>
     <use xlink:href="#DejaVuSans-61" transform="translate(707.027344 0)"/>
     <use xlink:href="#DejaVuSans-6e" transform="translate(768.306641 0)"/>
     <use xlink:href="#DejaVuSans-69" transform="translate(831.685547 0)"/>
     <use xlink:href="#DejaVuSans-61" transform="translate(859.46875 0)"/>
     <use xlink:href="#DejaVuSans-3a" transform="translate(920.748047 0)"/>
    </g>
    <!-- Transformania (2022) -->
    <g transform="translate(415.70623 462.860972) scale(0.1 -0.1)">
     <use xlink:href="#DejaVuSans-54"/>
     <use xlink:href="#DejaVuSans-72" transform="translate(46.333984 0)"/>
     <use xlink:href="#DejaVuSans-61" transform="translate(87.447266 0)"/>
     <use xlink:href="#DejaVuSans-6e" transform="translate(148.726562 0)"/>
     <use xlink:href="#DejaVuSans-73" transform="translate(212.105469 0)"/>
     <use xlink:href="#DejaVuSans-66" transform="translate(264.205078 0)"/>
     <use xlink:href="#DejaVuSans-6f" transform="translate(299.410156 0)"/>
     <use xlink:href="#DejaVuSans-72" transform="translate(360.591797 0)"/>
     <use xlink:href="#DejaVuSans-6d" transform="translate(399.955078 0)"/>
     <use xlink:href="#DejaVuSans-61" transform="translate(497.367188 0)"/>
     <use xlink:href="#DejaVuSans-6e" transform="translate(558.646484 0)"/>
     <use xlink:href="#DejaVuSans-69" transform="translate(622.025391 0)"/>
     <use xlink:href="#DejaVuSans-61" transform="translate(649.808594 0)"/>
     <use xlink:href="#DejaVuSans-20" transform="translate(711.087891 0)"/>
     <use xlink:href="#DejaVuSans-28" transform="translate(742.875 0)"/>
     <use xlink:href="#DejaVuSans-32" transform="translate(781.888672 0)"/>
     <use xlink:href="#DejaVuSans-30" transform="translate(845.511719 0)"/>
     <use xlink:href="#DejaVuSans-32" transform="translate(909.134766 0)"/>
     <use xlink:href="#DejaVuSans-32" transform="translate(972.757812 0)"/>
     <use xlink:href="#DejaVuSans-29" transform="translate(1036.380859 0)"/>
    </g>
   </g>
   <g id="text_26">
    <!-- Fifty Shades Darker (2017) -->
    <g transform="translate(513.893594 203.40786) scale(0.1 -0.1)">
     <use xlink:href="#DejaVuSans-46"/>
     <use xlink:href="#DejaVuSans-69" transform="translate(50.269531 0)"/>
     <use xlink:href="#DejaVuSans-66" transform="translate(78.052734 0)"/>
     <use xlink:href="#DejaVuSans-74" transform="translate(111.507812 0)"/>
     <use xlink:href="#DejaVuSans-79" transform="translate(150.716797 0)"/>
     <use xlink:href="#DejaVuSans-20" transform="translate(209.896484 0)"/>
     <use xlink:href="#DejaVuSans-53" transform="translate(241.683594 0)"/>
     <use xlink:href="#DejaVuSans-68" transform="translate(305.160156 0)"/>
     <use xlink:href="#DejaVuSans-61" transform="translate(368.539062 0)"/>
     <use xlink:href="#DejaVuSans-64" transform="translate(429.818359 0)"/>
     <use xlink:href="#DejaVuSans-65" transform="translate(493.294922 0)"/>
     <use xlink:href="#DejaVuSans-73" transform="translate(554.818359 0)"/>
     <use xlink:href="#DejaVuSans-20" transform="translate(606.917969 0)"/>
     <use xlink:href="#DejaVuSans-44" transform="translate(638.705078 0)"/>
     <use xlink:href="#DejaVuSans-61" transform="translate(715.707031 0)"/>
     <use xlink:href="#DejaVuSans-72" transform="translate(776.986328 0)"/>
     <use xlink:href="#DejaVuSans-6b" transform="translate(818.099609 0)"/>
     <use xlink:href="#DejaVuSans-65" transform="translate(872.384766 0)"/>
     <use xlink:href="#DejaVuSans-72" transform="translate(933.908203 0)"/>
     <use xlink:href="#DejaVuSans-20" transform="translate(975.021484 0)"/>
     <use xlink:href="#DejaVuSans-28" transform="translate(1006.808594 0)"/>
     <use xlink:href="#DejaVuSans-32" transform="translate(1045.822266 0)"/>
     <use xlink:href="#DejaVuSans-30" transform="translate(1109.445312 0)"/>
     <use xlink:href="#DejaVuSans-31" transform="translate(1173.068359 0)"/>
     <use xlink:href="#DejaVuSans-37" transform="translate(1236.691406 0)"/>
     <use xlink:href="#DejaVuSans-29" transform="translate(1300.314453 0)"/>
    </g>
   </g>
   <g id="text_27">
    <!-- Fifty Shades Freed (2018) -->
    <g transform="translate(505.630625 268.286444) scale(0.1 -0.1)">
     <use xlink:href="#DejaVuSans-46"/>
     <use xlink:href="#DejaVuSans-69" transform="translate(50.269531 0)"/>
     <use xlink:href="#DejaVuSans-66" transform="translate(78.052734 0)"/>
     <use xlink:href="#DejaVuSans-74" transform="translate(111.507812 0)"/>
     <use xlink:href="#DejaVuSans-79" transform="translate(150.716797 0)"/>
     <use xlink:href="#DejaVuSans-20" transform="translate(209.896484 0)"/>
     <use xlink:href="#DejaVuSans-53" transform="translate(241.683594 0)"/>
     <use xlink:href="#DejaVuSans-68" transform="translate(305.160156 0)"/>
     <use xlink:href="#DejaVuSans-61" transform="translate(368.539062 0)"/>
     <use xlink:href="#DejaVuSans-64" transform="translate(429.818359 0)"/>
     <use xlink:href="#DejaVuSans-65" transform="translate(493.294922 0)"/>
     <use xlink:href="#DejaVuSans-73" transform="translate(554.818359 0)"/>
     <use xlink:href="#DejaVuSans-20" transform="translate(606.917969 0)"/>
     <use xlink:href="#DejaVuSans-46" transform="translate(638.705078 0)"/>
     <use xlink:href="#DejaVuSans-72" transform="translate(688.974609 0)"/>
     <use xlink:href="#DejaVuSans-65" transform="translate(727.837891 0)"/>
     <use xlink:href="#DejaVuSans-65" transform="translate(789.361328 0)"/>
     <use xlink:href="#DejaVuSans-64" transform="translate(850.884766 0)"/>
     <use xlink:href="#DejaVuSans-20" transform="translate(914.361328 0)"/>
     <use xlink:href="#DejaVuSans-28" transform="translate(946.148438 0)"/>
     <use xlink:href="#DejaVuSans-32" transform="translate(985.162109 0)"/>
     <use xlink:href="#DejaVuSans-30" transform="translate(1048.785156 0)"/>
     <use xlink:href="#DejaVuSans-31" transform="translate(1112.408203 0)"/>
     <use xlink:href="#DejaVuSans-38" transform="translate(1176.03125 0)"/>
     <use xlink:href="#DejaVuSans-29" transform="translate(1239.654297 0)"/>
    </g>
   </g>
   <g id="text_28">
    <!-- Monster Pets: A Hotel -->
    <g transform="translate(190.340779 599.008469) scale(0.1 -0.1)">
     <defs>
      <path id="DejaVuSans-50" d="M 1259 4147 
L 1259 2394 
L 2053 2394 
Q 2494 2394 2734 2622 
Q 2975 2850 2975 3272 
Q 2975 3691 2734 3919 
Q 2494 4147 2053 4147 
L 1259 4147 
z
M 628 4666 
L 2053 4666 
Q 2838 4666 3239 4311 
Q 3641 3956 3641 3272 
Q 3641 2581 3239 2228 
Q 2838 1875 2053 1875 
L 1259 1875 
L 1259 0 
L 628 0 
L 628 4666 
z
" transform="scale(0.015625)"/>
      <path id="DejaVuSans-41" d="M 2188 4044 
L 1331 1722 
L 3047 1722 
L 2188 4044 
z
M 1831 4666 
L 2547 4666 
L 4325 0 
L 3669 0 
L 3244 1197 
L 1141 1197 
L 716 0 
L 50 0 
L 1831 4666 
z
" transform="scale(0.015625)"/>
     </defs>
     <use xlink:href="#DejaVuSans-4d"/>
     <use xlink:href="#DejaVuSans-6f" transform="translate(86.279297 0)"/>
     <use xlink:href="#DejaVuSans-6e" transform="translate(147.460938 0)"/>
     <use xlink:href="#DejaVuSans-73" transform="translate(210.839844 0)"/>
     <use xlink:href="#DejaVuSans-74" transform="translate(262.939453 0)"/>
     <use xlink:href="#DejaVuSans-65" transform="translate(302.148438 0)"/>
     <use xlink:href="#DejaVuSans-72" transform="translate(363.671875 0)"/>
     <use xlink:href="#DejaVuSans-20" transform="translate(404.785156 0)"/>
     <use xlink:href="#DejaVuSans-50" transform="translate(436.572266 0)"/>
     <use xlink:href="#DejaVuSans-65" transform="translate(493.25 0)"/>
     <use xlink:href="#DejaVuSans-74" transform="translate(554.773438 0)"/>
     <use xlink:href="#DejaVuSans-73" transform="translate(593.982422 0)"/>
     <use xlink:href="#DejaVuSans-3a" transform="translate(646.082031 0)"/>
     <use xlink:href="#DejaVuSans-20" transform="translate(679.773438 0)"/>
     <use xlink:href="#DejaVuSans-41" transform="translate(711.560547 0)"/>
     <use xlink:href="#DejaVuSans-20" transform="translate(779.96875 0)"/>
     <use xlink:href="#DejaVuSans-48" transform="translate(811.755859 0)"/>
     <use xlink:href="#DejaVuSans-6f" transform="translate(886.951172 0)"/>
     <use xlink:href="#DejaVuSans-74" transform="translate(948.132812 0)"/>
     <use xlink:href="#DejaVuSans-65" transform="translate(987.341797 0)"/>
     <use xlink:href="#DejaVuSans-6c" transform="translate(1048.865234 0)"/>
    </g>
    <!-- Transylvania Short (2021) -->
    <g transform="translate(179.746248 610.206281) scale(0.1 -0.1)">
     <use xlink:href="#DejaVuSans-54"/>
     <use xlink:href="#DejaVuSans-72" transform="translate(46.333984 0)"/>
     <use xlink:href="#DejaVuSans-61" transform="translate(87.447266 0)"/>
     <use xlink:href="#DejaVuSans-6e" transform="translate(148.726562 0)"/>
     <use xlink:href="#DejaVuSans-73" transform="translate(212.105469 0)"/>
     <use xlink:href="#DejaVuSans-79" transform="translate(264.205078 0)"/>
     <use xlink:href="#DejaVuSans-6c" transform="translate(323.384766 0)"/>
     <use xlink:href="#DejaVuSans-76" transform="translate(351.167969 0)"/>
     <use xlink:href="#DejaVuSans-61" transform="translate(410.347656 0)"/>
     <use xlink:href="#DejaVuSans-6e" transform="translate(471.626953 0)"/>
     <use xlink:href="#DejaVuSans-69" transform="translate(535.005859 0)"/>
     <use xlink:href="#DejaVuSans-61" transform="translate(562.789062 0)"/>
     <use xlink:href="#DejaVuSans-20" transform="translate(624.068359 0)"/>
     <use xlink:href="#DejaVuSans-53" transform="translate(655.855469 0)"/>
     <use xlink:href="#DejaVuSans-68" transform="translate(719.332031 0)"/>
     <use xlink:href="#DejaVuSans-6f" transform="translate(782.710938 0)"/>
     <use xlink:href="#DejaVuSans-72" transform="translate(843.892578 0)"/>
     <use xlink:href="#DejaVuSans-74" transform="translate(885.005859 0)"/>
     <use xlink:href="#DejaVuSans-20" transform="translate(924.214844 0)"/>
     <use xlink:href="#DejaVuSans-28" transform="translate(956.001953 0)"/>
     <use xlink:href="#DejaVuSans-32" transform="translate(995.015625 0)"/>
     <use xlink:href="#DejaVuSans-30" transform="translate(1058.638672 0)"/>
     <use xlink:href="#DejaVuSans-32" transform="translate(1122.261719 0)"/>
     <use xlink:href="#DejaVuSans-31" transform="translate(1185.884766 0)"/>
     <use xlink:href="#DejaVuSans-29" transform="translate(1249.507812 0)"/>
    </g>
   </g>
   <g id="text_29">
    <!-- Despicable Me Presents: Minion -->
    <g transform="translate(418.602904 504.443823) scale(0.1 -0.1)">
     <use xlink:href="#DejaVuSans-44"/>
     <use xlink:href="#DejaVuSans-65" transform="translate(77.001953 0)"/>
     <use xlink:href="#DejaVuSans-73" transform="translate(138.525391 0)"/>
     <use xlink:href="#DejaVuSans-70" transform="translate(190.625 0)"/>
     <use xlink:href="#DejaVuSans-69" transform="translate(254.101562 0)"/>
     <use xlink:href="#DejaVuSans-63" transform="translate(281.884766 0)"/>
     <use xlink:href="#DejaVuSans-61" transform="translate(336.865234 0)"/>
     <use xlink:href="#DejaVuSans-62" transform="translate(398.144531 0)"/>
     <use xlink:href="#DejaVuSans-6c" transform="translate(461.621094 0)"/>
     <use xlink:href="#DejaVuSans-65" transform="translate(489.404297 0)"/>
     <use xlink:href="#DejaVuSans-20" transform="translate(550.927734 0)"/>
     <use xlink:href="#DejaVuSans-4d" transform="translate(582.714844 0)"/>
     <use xlink:href="#DejaVuSans-65" transform="translate(668.994141 0)"/>
     <use xlink:href="#DejaVuSans-20" transform="translate(730.517578 0)"/>
     <use xlink:href="#DejaVuSans-50" transform="translate(762.304688 0)"/>
     <use xlink:href="#DejaVuSans-72" transform="translate(820.857422 0)"/>
     <use xlink:href="#DejaVuSans-65" transform="translate(859.720703 0)"/>
     <use xlink:href="#DejaVuSans-73" transform="translate(921.244141 0)"/>
     <use xlink:href="#DejaVuSans-65" transform="translate(973.34375 0)"/>
     <use xlink:href="#DejaVuSans-6e" transform="translate(1034.867188 0)"/>
     <use xlink:href="#DejaVuSans-74" transform="translate(1098.246094 0)"/>
     <use xlink:href="#DejaVuSans-73" transform="translate(1137.455078 0)"/>
     <use xlink:href="#DejaVuSans-3a" transform="translate(1189.554688 0)"/>
     <use xlink:href="#DejaVuSans-20" transform="translate(1223.246094 0)"/>
     <use xlink:href="#DejaVuSans-4d" transform="translate(1255.033203 0)"/>
     <use xlink:href="#DejaVuSans-69" transform="translate(1341.3125 0)"/>
     <use xlink:href="#DejaVuSans-6e" transform="translate(1369.095703 0)"/>
     <use xlink:href="#DejaVuSans-69" transform="translate(1432.474609 0)"/>
     <use xlink:href="#DejaVuSans-6f" transform="translate(1460.257812 0)"/>
     <use xlink:href="#DejaVuSans-6e" transform="translate(1521.439453 0)"/>
    </g>
    <!-- Madness (2010) -->
    <g transform="translate(457.620872 515.641636) scale(0.1 -0.1)">
     <use xlink:href="#DejaVuSans-4d"/>
     <use xlink:href="#DejaVuSans-61" transform="translate(86.279297 0)"/>
     <use xlink:href="#DejaVuSans-64" transform="translate(147.558594 0)"/>
     <use xlink:href="#DejaVuSans-6e" transform="translate(211.035156 0)"/>
     <use xlink:href="#DejaVuSans-65" transform="translate(274.414062 0)"/>
     <use xlink:href="#DejaVuSans-73" transform="translate(335.9375 0)"/>
     <use xlink:href="#DejaVuSans-73" transform="translate(388.037109 0)"/>
     <use xlink:href="#DejaVuSans-20" transform="translate(440.136719 0)"/>
     <use xlink:href="#DejaVuSans-28" transform="translate(471.923828 0)"/>
     <use xlink:href="#DejaVuSans-32" transform="translate(510.9375 0)"/>
     <use xlink:href="#DejaVuSans-30" transform="translate(574.560547 0)"/>
     <use xlink:href="#DejaVuSans-31" transform="translate(638.183594 0)"/>
     <use xlink:href="#DejaVuSans-30" transform="translate(701.806641 0)"/>
     <use xlink:href="#DejaVuSans-29" transform="translate(765.429688 0)"/>
    </g>
   </g>
   <g id="text_30">
    <!-- A Passage to Middle-earth: -->
    <g transform="translate(495.943751 221.486921) scale(0.1 -0.1)">
     <defs>
      <path id="DejaVuSans-2d" d="M 313 2009 
L 1997 2009 
L 1997 1497 
L 313 1497 
L 313 2009 
z
" transform="scale(0.015625)"/>
     </defs>
     <use xlink:href="#DejaVuSans-41"/>
     <use xlink:href="#DejaVuSans-20" transform="translate(68.408203 0)"/>
     <use xlink:href="#DejaVuSans-50" transform="translate(100.195312 0)"/>
     <use xlink:href="#DejaVuSans-61" transform="translate(155.998047 0)"/>
     <use xlink:href="#DejaVuSans-73" transform="translate(217.277344 0)"/>
     <use xlink:href="#DejaVuSans-73" transform="translate(269.376953 0)"/>
     <use xlink:href="#DejaVuSans-61" transform="translate(321.476562 0)"/>
     <use xlink:href="#DejaVuSans-67" transform="translate(382.755859 0)"/>
     <use xlink:href="#DejaVuSans-65" transform="translate(446.232422 0)"/>
     <use xlink:href="#DejaVuSans-20" transform="translate(507.755859 0)"/>
     <use xlink:href="#DejaVuSans-74" transform="translate(539.542969 0)"/>
     <use xlink:href="#DejaVuSans-6f" transform="translate(578.751953 0)"/>
     <use xlink:href="#DejaVuSans-20" transform="translate(639.933594 0)"/>
     <use xlink:href="#DejaVuSans-4d" transform="translate(671.720703 0)"/>
     <use xlink:href="#DejaVuSans-69" transform="translate(758 0)"/>
     <use xlink:href="#DejaVuSans-64" transform="translate(785.783203 0)"/>
     <use xlink:href="#DejaVuSans-64" transform="translate(849.259766 0)"/>
     <use xlink:href="#DejaVuSans-6c" transform="translate(912.736328 0)"/>
     <use xlink:href="#DejaVuSans-65" transform="translate(940.519531 0)"/>
     <use xlink:href="#DejaVuSans-2d" transform="translate(1002.042969 0)"/>
     <use xlink:href="#DejaVuSans-65" transform="translate(1038.126953 0)"/>
     <use xlink:href="#DejaVuSans-61" transform="translate(1099.650391 0)"/>
     <use xlink:href="#DejaVuSans-72" transform="translate(1160.929688 0)"/>
     <use xlink:href="#DejaVuSans-74" transform="translate(1202.042969 0)"/>
     <use xlink:href="#DejaVuSans-68" transform="translate(1241.251953 0)"/>
     <use xlink:href="#DejaVuSans-3a" transform="translate(1304.630859 0)"/>
    </g>
    <!-- Making of 'Lord of the Rings' -->
    <g transform="translate(491.604688 232.684734) scale(0.1 -0.1)">
     <defs>
      <path id="DejaVuSans-27" d="M 1147 4666 
L 1147 2931 
L 616 2931 
L 616 4666 
L 1147 4666 
z
" transform="scale(0.015625)"/>
     </defs>
     <use xlink:href="#DejaVuSans-4d"/>
     <use xlink:href="#DejaVuSans-61" transform="translate(86.279297 0)"/>
     <use xlink:href="#DejaVuSans-6b" transform="translate(147.558594 0)"/>
     <use xlink:href="#DejaVuSans-69" transform="translate(205.46875 0)"/>
     <use xlink:href="#DejaVuSans-6e" transform="translate(233.251953 0)"/>
     <use xlink:href="#DejaVuSans-67" transform="translate(296.630859 0)"/>
     <use xlink:href="#DejaVuSans-20" transform="translate(360.107422 0)"/>
     <use xlink:href="#DejaVuSans-6f" transform="translate(391.894531 0)"/>
     <use xlink:href="#DejaVuSans-66" transform="translate(453.076172 0)"/>
     <use xlink:href="#DejaVuSans-20" transform="translate(488.28125 0)"/>
     <use xlink:href="#DejaVuSans-27" transform="translate(520.068359 0)"/>
     <use xlink:href="#DejaVuSans-4c" transform="translate(547.558594 0)"/>
     <use xlink:href="#DejaVuSans-6f" transform="translate(601.521484 0)"/>
     <use xlink:href="#DejaVuSans-72" transform="translate(662.703125 0)"/>
     <use xlink:href="#DejaVuSans-64" transform="translate(702.066406 0)"/>
     <use xlink:href="#DejaVuSans-20" transform="translate(765.542969 0)"/>
     <use xlink:href="#DejaVuSans-6f" transform="translate(797.330078 0)"/>
     <use xlink:href="#DejaVuSans-66" transform="translate(858.511719 0)"/>
     <use xlink:href="#DejaVuSans-20" transform="translate(893.716797 0)"/>
     <use xlink:href="#DejaVuSans-74" transform="translate(925.503906 0)"/>
     <use xlink:href="#DejaVuSans-68" transform="translate(964.712891 0)"/>
     <use xlink:href="#DejaVuSans-65" transform="translate(1028.091797 0)"/>
     <use xlink:href="#DejaVuSans-20" transform="translate(1089.615234 0)"/>
     <use xlink:href="#DejaVuSans-52" transform="translate(1121.402344 0)"/>
     <use xlink:href="#DejaVuSans-69" transform="translate(1190.884766 0)"/>
     <use xlink:href="#DejaVuSans-6e" transform="translate(1218.667969 0)"/>
     <use xlink:href="#DejaVuSans-67" transform="translate(1282.046875 0)"/>
     <use xlink:href="#DejaVuSans-73" transform="translate(1345.523438 0)"/>
     <use xlink:href="#DejaVuSans-27" transform="translate(1397.623047 0)"/>
    </g>
    <!-- (2001) -->
    <g transform="translate(546.232813 243.882546) scale(0.1 -0.1)">
     <use xlink:href="#DejaVuSans-28"/>
     <use xlink:href="#DejaVuSans-32" transform="translate(39.013672 0)"/>
     <use xlink:href="#DejaVuSans-30" transform="translate(102.636719 0)"/>
     <use xlink:href="#DejaVuSans-30" transform="translate(166.259766 0)"/>
     <use xlink:href="#DejaVuSans-31" transform="translate(229.882812 0)"/>
     <use xlink:href="#DejaVuSans-29" transform="translate(293.505859 0)"/>
    </g>
   </g>
   <g id="text_31">
    <!-- J.R.R. Tolkien and the Birth -->
    <g transform="translate(128.265824 294.416052) scale(0.1 -0.1)">
     <defs>
      <path id="DejaVuSans-4a" d="M 628 4666 
L 1259 4666 
L 1259 325 
Q 1259 -519 939 -900 
Q 619 -1281 -91 -1281 
L -331 -1281 
L -331 -750 
L -134 -750 
Q 284 -750 456 -515 
Q 628 -281 628 325 
L 628 4666 
z
" transform="scale(0.015625)"/>
      <path id="DejaVuSans-2e" d="M 684 794 
L 1344 794 
L 1344 0 
L 684 0 
L 684 794 
z
" transform="scale(0.015625)"/>
     </defs>
     <use xlink:href="#DejaVuSans-4a"/>
     <use xlink:href="#DejaVuSans-2e" transform="translate(29.492188 0)"/>
     <use xlink:href="#DejaVuSans-52" transform="translate(61.279297 0)"/>
     <use xlink:href="#DejaVuSans-2e" transform="translate(127.136719 0)"/>
     <use xlink:href="#DejaVuSans-52" transform="translate(158.923828 0)"/>
     <use xlink:href="#DejaVuSans-2e" transform="translate(224.78125 0)"/>
     <use xlink:href="#DejaVuSans-20" transform="translate(256.568359 0)"/>
     <use xlink:href="#DejaVuSans-54" transform="translate(288.355469 0)"/>
     <use xlink:href="#DejaVuSans-6f" transform="translate(332.439453 0)"/>
     <use xlink:href="#DejaVuSans-6c" transform="translate(393.621094 0)"/>
     <use xlink:href="#DejaVuSans-6b" transform="translate(421.404297 0)"/>
     <use xlink:href="#DejaVuSans-69" transform="translate(479.314453 0)"/>
     <use xlink:href="#DejaVuSans-65" transform="translate(507.097656 0)"/>
     <use xlink:href="#DejaVuSans-6e" transform="translate(568.621094 0)"/>
     <use xlink:href="#DejaVuSans-20" transform="translate(632 0)"/>
     <use xlink:href="#DejaVuSans-61" transform="translate(663.787109 0)"/>
     <use xlink:href="#DejaVuSans-6e" transform="translate(725.066406 0)"/>
     <use xlink:href="#DejaVuSans-64" transform="translate(788.445312 0)"/>
     <use xlink:href="#DejaVuSans-20" transform="translate(851.921875 0)"/>
     <use xlink:href="#DejaVuSans-74" transform="translate(883.708984 0)"/>
     <use xlink:href="#DejaVuSans-68" transform="translate(922.917969 0)"/>
     <use xlink:href="#DejaVuSans-65" transform="translate(986.296875 0)"/>
     <use xlink:href="#DejaVuSans-20" transform="translate(1047.820312 0)"/>
     <use xlink:href="#DejaVuSans-42" transform="translate(1079.607422 0)"/>
     <use xlink:href="#DejaVuSans-69" transform="translate(1148.210938 0)"/>
     <use xlink:href="#DejaVuSans-72" transform="translate(1175.994141 0)"/>
     <use xlink:href="#DejaVuSans-74" transform="translate(1217.107422 0)"/>
     <use xlink:href="#DejaVuSans-68" transform="translate(1256.316406 0)"/>
    </g>
    <!-- Of "The Lord of the Rings" And -->
    <g transform="translate(117.61973 305.613864) scale(0.1 -0.1)">
     <defs>
      <path id="DejaVuSans-4f" d="M 2522 4238 
Q 1834 4238 1429 3725 
Q 1025 3213 1025 2328 
Q 1025 1447 1429 934 
Q 1834 422 2522 422 
Q 3209 422 3611 934 
Q 4013 1447 4013 2328 
Q 4013 3213 3611 3725 
Q 3209 4238 2522 4238 
z
M 2522 4750 
Q 3503 4750 4090 4092 
Q 4678 3434 4678 2328 
Q 4678 1225 4090 567 
Q 3503 -91 2522 -91 
Q 1538 -91 948 565 
Q 359 1222 359 2328 
Q 359 3434 948 4092 
Q 1538 4750 2522 4750 
z
" transform="scale(0.015625)"/>
      <path id="DejaVuSans-22" d="M 1147 4666 
L 1147 2931 
L 616 2931 
L 616 4666 
L 1147 4666 
z
M 2328 4666 
L 2328 2931 
L 1797 2931 
L 1797 4666 
L 2328 4666 
z
" transform="scale(0.015625)"/>
     </defs>
     <use xlink:href="#DejaVuSans-4f"/>
     <use xlink:href="#DejaVuSans-66" transform="translate(78.710938 0)"/>
     <use xlink:href="#DejaVuSans-20" transform="translate(113.916016 0)"/>
     <use xlink:href="#DejaVuSans-22" transform="translate(145.703125 0)"/>
     <use xlink:href="#DejaVuSans-54" transform="translate(191.699219 0)"/>
     <use xlink:href="#DejaVuSans-68" transform="translate(252.783203 0)"/>
     <use xlink:href="#DejaVuSans-65" transform="translate(316.162109 0)"/>
     <use xlink:href="#DejaVuSans-20" transform="translate(377.685547 0)"/>
     <use xlink:href="#DejaVuSans-4c" transform="translate(409.472656 0)"/>
     <use xlink:href="#DejaVuSans-6f" transform="translate(463.435547 0)"/>
     <use xlink:href="#DejaVuSans-72" transform="translate(524.617188 0)"/>
     <use xlink:href="#DejaVuSans-64" transform="translate(563.980469 0)"/>
     <use xlink:href="#DejaVuSans-20" transform="translate(627.457031 0)"/>
     <use xlink:href="#DejaVuSans-6f" transform="translate(659.244141 0)"/>
     <use xlink:href="#DejaVuSans-66" transform="translate(720.425781 0)"/>
     <use xlink:href="#DejaVuSans-20" transform="translate(755.630859 0)"/>
     <use xlink:href="#DejaVuSans-74" transform="translate(787.417969 0)"/>
     <use xlink:href="#DejaVuSans-68" transform="translate(826.626953 0)"/>
     <use xlink:href="#DejaVuSans-65" transform="translate(890.005859 0)"/>
     <use xlink:href="#DejaVuSans-20" transform="translate(951.529297 0)"/>
     <use xlink:href="#DejaVuSans-52" transform="translate(983.316406 0)"/>
     <use xlink:href="#DejaVuSans-69" transform="translate(1052.798828 0)"/>
     <use xlink:href="#DejaVuSans-6e" transform="translate(1080.582031 0)"/>
     <use xlink:href="#DejaVuSans-67" transform="translate(1143.960938 0)"/>
     <use xlink:href="#DejaVuSans-73" transform="translate(1207.4375 0)"/>
     <use xlink:href="#DejaVuSans-22" transform="translate(1259.537109 0)"/>
     <use xlink:href="#DejaVuSans-20" transform="translate(1305.533203 0)"/>
     <use xlink:href="#DejaVuSans-41" transform="translate(1337.320312 0)"/>
     <use xlink:href="#DejaVuSans-6e" transform="translate(1405.728516 0)"/>
     <use xlink:href="#DejaVuSans-64" transform="translate(1469.107422 0)"/>
    </g>
    <!-- "The Hobbit" (2013) -->
    <g transform="translate(144.027543 316.811677) scale(0.1 -0.1)">
     <use xlink:href="#DejaVuSans-22"/>
     <use xlink:href="#DejaVuSans-54" transform="translate(45.996094 0)"/>
     <use xlink:href="#DejaVuSans-68" transform="translate(107.080078 0)"/>
     <use xlink:href="#DejaVuSans-65" transform="translate(170.458984 0)"/>
     <use xlink:href="#DejaVuSans-20" transform="translate(231.982422 0)"/>
     <use xlink:href="#DejaVuSans-48" transform="translate(263.769531 0)"/>
     <use xlink:href="#DejaVuSans-6f" transform="translate(338.964844 0)"/>
     <use xlink:href="#DejaVuSans-62" transform="translate(400.146484 0)"/>
     <use xlink:href="#DejaVuSans-62" transform="translate(463.623047 0)"/>
     <use xlink:href="#DejaVuSans-69" transform="translate(527.099609 0)"/>
     <use xlink:href="#DejaVuSans-74" transform="translate(554.882812 0)"/>
     <use xlink:href="#DejaVuSans-22" transform="translate(594.091797 0)"/>
     <use xlink:href="#DejaVuSans-20" transform="translate(640.087891 0)"/>
     <use xlink:href="#DejaVuSans-28" transform="translate(671.875 0)"/>
     <use xlink:href="#DejaVuSans-32" transform="translate(710.888672 0)"/>
     <use xlink:href="#DejaVuSans-30" transform="translate(774.511719 0)"/>
     <use xlink:href="#DejaVuSans-31" transform="translate(838.134766 0)"/>
     <use xlink:href="#DejaVuSans-33" transform="translate(901.757812 0)"/>
     <use xlink:href="#DejaVuSans-29" transform="translate(965.380859 0)"/>
    </g>
   </g>
   <g id="text_32">
    <!-- Hotel Transylvania: Puppy! -->
    <g transform="translate(215.472426 95.008469) scale(0.1 -0.1)">
     <defs>
      <path id="DejaVuSans-21" d="M 966 794 
L 1600 794 
L 1600 0 
L 966 0 
L 966 794 
z
M 966 4666 
L 1600 4666 
L 1600 2619 
L 1538 1503 
L 1031 1503 
L 966 2619 
L 966 4666 
z
" transform="scale(0.015625)"/>
     </defs>
     <use xlink:href="#DejaVuSans-48"/>
     <use xlink:href="#DejaVuSans-6f" transform="translate(75.195312 0)"/>
     <use xlink:href="#DejaVuSans-74" transform="translate(136.376953 0)"/>
     <use xlink:href="#DejaVuSans-65" transform="translate(175.585938 0)"/>
     <use xlink:href="#DejaVuSans-6c" transform="translate(237.109375 0)"/>
     <use xlink:href="#DejaVuSans-20" transform="translate(264.892578 0)"/>
     <use xlink:href="#DejaVuSans-54" transform="translate(296.679688 0)"/>
     <use xlink:href="#DejaVuSans-72" transform="translate(343.013672 0)"/>
     <use xlink:href="#DejaVuSans-61" transform="translate(384.126953 0)"/>
     <use xlink:href="#DejaVuSans-6e" transform="translate(445.40625 0)"/>
     <use xlink:href="#DejaVuSans-73" transform="translate(508.785156 0)"/>
     <use xlink:href="#DejaVuSans-79" transform="translate(560.884766 0)"/>
     <use xlink:href="#DejaVuSans-6c" transform="translate(620.064453 0)"/>
     <use xlink:href="#DejaVuSans-76" transform="translate(647.847656 0)"/>
     <use xlink:href="#DejaVuSans-61" transform="translate(707.027344 0)"/>
     <use xlink:href="#DejaVuSans-6e" transform="translate(768.306641 0)"/>
     <use xlink:href="#DejaVuSans-69" transform="translate(831.685547 0)"/>
     <use xlink:href="#DejaVuSans-61" transform="translate(859.46875 0)"/>
     <use xlink:href="#DejaVuSans-3a" transform="translate(920.748047 0)"/>
     <use xlink:href="#DejaVuSans-20" transform="translate(954.439453 0)"/>
     <use xlink:href="#DejaVuSans-50" transform="translate(986.226562 0)"/>
     <use xlink:href="#DejaVuSans-75" transform="translate(1044.779297 0)"/>
     <use xlink:href="#DejaVuSans-70" transform="translate(1108.158203 0)"/>
     <use xlink:href="#DejaVuSans-70" transform="translate(1171.634766 0)"/>
     <use xlink:href="#DejaVuSans-79" transform="translate(1235.111328 0)"/>
     <use xlink:href="#DejaVuSans-21" transform="translate(1294.291016 0)"/>
    </g>
    <!-- (2017) -->
    <g transform="translate(265.565395 106.206281) scale(0.1 -0.1)">
     <use xlink:href="#DejaVuSans-28"/>
     <use xlink:href="#DejaVuSans-32" transform="translate(39.013672 0)"/>
     <use xlink:href="#DejaVuSans-30" transform="translate(102.636719 0)"/>
     <use xlink:href="#DejaVuSans-31" transform="translate(166.259766 0)"/>
     <use xlink:href="#DejaVuSans-37" transform="translate(229.882812 0)"/>
     <use xlink:href="#DejaVuSans-29" transform="translate(293.505859 0)"/>
    </g>
   </g>
   <g id="patch_7">
    <path d="M 185.032597 349.291195 
Q 154.479227 359.527765 123.925857 369.764335 
" style="fill: none; stroke: #000000; stroke-width: 0.5; stroke-linecap: round"/>
   </g>
   <g id="patch_8">
    <path d="M 336.311722 351.627344 
Q 236.852501 360.132883 137.39328 368.638422 
" style="fill: none; stroke: #000000; stroke-width: 0.5; stroke-linecap: round"/>
   </g>
   <g id="patch_9">
    <path d="M 222.325775 386.658096 
Q 181.179467 378.789616 140.033159 370.921136 
" style="fill: none; stroke: #000000; stroke-width: 0.5; stroke-linecap: round"/>
   </g>
   <g id="patch_10">
    <path d="M 381.165682 380.604994 
Q 354.170462 383.958438 327.175242 387.311881 
" style="fill: none; stroke: #000000; stroke-width: 0.5; stroke-linecap: round"/>
   </g>
   <g id="patch_11">
    <path d="M 388.077068 401.361874 
Q 357.044031 400.685405 326.010994 400.008935 
" style="fill: none; stroke: #000000; stroke-width: 0.5; stroke-linecap: round"/>
   </g>
   <g id="patch_12">
    <path d="M 253.771569 218.788225 
Q 216.981728 218.105351 180.191886 217.422477 
" style="fill: none; stroke: #000000; stroke-width: 0.5; stroke-linecap: round"/>
   </g>
   <g id="patch_13">
    <path d="M 306.490283 417.126335 
Q 285.742596 413.839572 264.994908 410.55281 
" style="fill: none; stroke: #000000; stroke-width: 0.5; stroke-linecap: round"/>
   </g>
   <g id="patch_14">
    <path d="M 531.973215 401.407902 
Q 462.103098 405.642985 392.23298 409.878068 
" style="fill: none; stroke: #000000; stroke-width: 0.5; stroke-linecap: round"/>
   </g>
   <g id="patch_15">
    <path d="M 481.506928 366.862169 
Q 421.181753 368.952861 360.856579 371.043553 
" style="fill: none; stroke: #000000; stroke-width: 0.5; stroke-linecap: round"/>
   </g>
   <g id="patch_16">
    <path d="M 582.552799 201.713192 
Q 586.010626 203.888035 589.468452 206.062878 
" style="fill: none; stroke: #000000; stroke-width: 0.5; stroke-linecap: round"/>
   </g>
   <g id="patch_17">
    <path d="M 571.550641 265.311561 
Q 596.100411 262.647098 620.650182 259.982635 
" style="fill: none; stroke: #000000; stroke-width: 0.5; stroke-linecap: round"/>
   </g>
   <g id="patch_18">
    <path d="M 495.864156 507.558226 
Q 456.107432 513.07916 416.350707 518.600093 
" style="fill: none; stroke: #000000; stroke-width: 0.5; stroke-linecap: round"/>
   </g>
   <g id="patch_19">
    <path d="M 560.939254 230.476829 
Q 527.510986 240.077614 494.082718 249.6784 
" style="fill: none; stroke: #000000; stroke-width: 0.5; stroke-linecap: round"/>
   </g>
   <g id="patch_20">
    <path d="M 192.469583 303.767053 
Q 154.807253 323.085916 117.144923 342.40478 
" style="fill: none; stroke: #000000; stroke-width: 0.5; stroke-linecap: round"/>
   </g>
   <g id="text_33">
    <!-- Feature space -->
    <g transform="translate(326.822812 80.4) scale(0.12 -0.12)">
     <use xlink:href="#DejaVuSans-46"/>
     <use xlink:href="#DejaVuSans-65" transform="translate(52.019531 0)"/>
     <use xlink:href="#DejaVuSans-61" transform="translate(113.542969 0)"/>
     <use xlink:href="#DejaVuSans-74" transform="translate(174.822266 0)"/>
     <use xlink:href="#DejaVuSans-75" transform="translate(214.03125 0)"/>
     <use xlink:href="#DejaVuSans-72" transform="translate(277.410156 0)"/>
     <use xlink:href="#DejaVuSans-65" transform="translate(316.273438 0)"/>
     <use xlink:href="#DejaVuSans-20" transform="translate(377.796875 0)"/>
     <use xlink:href="#DejaVuSans-73" transform="translate(409.583984 0)"/>
     <use xlink:href="#DejaVuSans-70" transform="translate(461.683594 0)"/>
     <use xlink:href="#DejaVuSans-61" transform="translate(525.160156 0)"/>
     <use xlink:href="#DejaVuSans-63" transform="translate(586.439453 0)"/>
     <use xlink:href="#DejaVuSans-65" transform="translate(641.419922 0)"/>
    </g>
   </g>
  </g>
 </g>
 <defs>
  <clipPath id="pe81eb02790">
   <rect x="90" y="86.4" width="558" height="554.4"/>
  </clipPath>
 </defs>
</svg>
